<mxfile host="app.diagrams.net" modified="2022-01-04T02:46:43.317Z" agent="5.0 (Macintosh; Intel Mac OS X 10_15_7) AppleWebKit/605.1.15 (KHTML, like Gecko) Version/15.1 Safari/605.1.15" etag="5m1imlrKNlFylHat2fW-" version="16.1.4" type="github">
  <diagram name="Page-1" id="0783ab3e-0a74-02c8-0abd-f7b4e66b4bec">
    <mxGraphModel dx="818" dy="497" grid="1" gridSize="10" guides="1" tooltips="1" connect="1" arrows="1" fold="1" page="1" pageScale="1" pageWidth="850" pageHeight="1100" background="none" math="0" shadow="0">
      <root>
        <mxCell id="0" />
        <mxCell id="1" parent="0" />
        <mxCell id="1c1d494c118603dd-1" value="KendaraanBekas" style="swimlane;html=1;childLayout=stackLayout;startSize=20;rounded=0;shadow=0;comic=0;labelBackgroundColor=none;strokeWidth=1;fontFamily=Verdana;fontSize=12;align=center;" parent="1" vertex="1">
          <mxGeometry x="40" y="20" width="510" height="700" as="geometry" />
        </mxCell>
        <mxCell id="1c1d494c118603dd-2" value="User" style="swimlane;html=1;startSize=20;" parent="1c1d494c118603dd-1" vertex="1">
          <mxGeometry y="20" width="250" height="680" as="geometry" />
        </mxCell>
        <mxCell id="HbQ1YfReIVzo1ypkKAUV-1" value="" style="ellipse;html=1;shape=startState;fillColor=#000000;strokeColor=#ff0000;" parent="1c1d494c118603dd-2" vertex="1">
          <mxGeometry x="110" y="40" width="30" height="30" as="geometry" />
        </mxCell>
        <mxCell id="HbQ1YfReIVzo1ypkKAUV-2" value="" style="edgeStyle=orthogonalEdgeStyle;html=1;verticalAlign=bottom;endArrow=open;endSize=8;strokeColor=#ff0000;rounded=0;entryX=0.5;entryY=0;entryDx=0;entryDy=0;" parent="1c1d494c118603dd-2" source="HbQ1YfReIVzo1ypkKAUV-1" target="HbQ1YfReIVzo1ypkKAUV-4" edge="1">
          <mxGeometry relative="1" as="geometry">
            <mxPoint x="125" y="130" as="targetPoint" />
          </mxGeometry>
        </mxCell>
        <mxCell id="HbQ1YfReIVzo1ypkKAUV-4" value="Akses Aplikasi KendaraanBekas" style="rounded=1;whiteSpace=wrap;html=1;arcSize=40;fontColor=#000000;fillColor=#ffffc0;strokeColor=#ff0000;" parent="1c1d494c118603dd-2" vertex="1">
          <mxGeometry x="65" y="140" width="120" height="40" as="geometry" />
        </mxCell>
        <mxCell id="HbQ1YfReIVzo1ypkKAUV-8" value="&lt;i&gt;Input &amp;nbsp;Email dan Password&lt;/i&gt;" style="rounded=1;whiteSpace=wrap;html=1;arcSize=40;fontColor=#000000;fillColor=#ffffc0;strokeColor=#ff0000;" parent="1c1d494c118603dd-2" vertex="1">
          <mxGeometry x="70" y="240" width="120" height="40" as="geometry" />
        </mxCell>
        <mxCell id="HbQ1YfReIVzo1ypkKAUV-35" value="Login" style="text;html=1;strokeColor=none;fillColor=none;align=center;verticalAlign=middle;whiteSpace=wrap;rounded=0;" parent="1c1d494c118603dd-2" vertex="1">
          <mxGeometry y="650" width="60" height="30" as="geometry" />
        </mxCell>
        <mxCell id="HbQ1YfReIVzo1ypkKAUV-5" value="" style="edgeStyle=orthogonalEdgeStyle;html=1;verticalAlign=bottom;endArrow=open;endSize=8;strokeColor=#ff0000;rounded=0;entryX=0;entryY=0.5;entryDx=0;entryDy=0;" parent="1c1d494c118603dd-1" source="HbQ1YfReIVzo1ypkKAUV-4" target="HbQ1YfReIVzo1ypkKAUV-6" edge="1">
          <mxGeometry relative="1" as="geometry">
            <mxPoint x="125" y="260" as="targetPoint" />
          </mxGeometry>
        </mxCell>
        <mxCell id="HbQ1YfReIVzo1ypkKAUV-7" value="" style="edgeStyle=orthogonalEdgeStyle;html=1;verticalAlign=bottom;endArrow=open;endSize=8;strokeColor=#ff0000;rounded=0;entryX=0.5;entryY=0;entryDx=0;entryDy=0;" parent="1c1d494c118603dd-1" source="HbQ1YfReIVzo1ypkKAUV-6" target="HbQ1YfReIVzo1ypkKAUV-8" edge="1">
          <mxGeometry relative="1" as="geometry">
            <mxPoint x="375" y="260" as="targetPoint" />
            <Array as="points">
              <mxPoint x="375" y="230" />
              <mxPoint x="130" y="230" />
            </Array>
          </mxGeometry>
        </mxCell>
        <mxCell id="HbQ1YfReIVzo1ypkKAUV-9" value="" style="edgeStyle=orthogonalEdgeStyle;html=1;verticalAlign=bottom;endArrow=open;endSize=8;strokeColor=#ff0000;rounded=0;entryX=0;entryY=0.5;entryDx=0;entryDy=0;" parent="1c1d494c118603dd-1" source="HbQ1YfReIVzo1ypkKAUV-8" target="HbQ1YfReIVzo1ypkKAUV-10" edge="1">
          <mxGeometry relative="1" as="geometry">
            <mxPoint x="130" y="350" as="targetPoint" />
          </mxGeometry>
        </mxCell>
        <mxCell id="1c1d494c118603dd-3" value="System" style="swimlane;html=1;startSize=20;" parent="1c1d494c118603dd-1" vertex="1">
          <mxGeometry x="250" y="20" width="260" height="680" as="geometry" />
        </mxCell>
        <mxCell id="HbQ1YfReIVzo1ypkKAUV-6" value="Form Login" style="rounded=1;whiteSpace=wrap;html=1;arcSize=40;fontColor=#000000;fillColor=#ffffc0;strokeColor=#ff0000;" parent="1c1d494c118603dd-3" vertex="1">
          <mxGeometry x="65" y="140" width="120" height="40" as="geometry" />
        </mxCell>
        <mxCell id="HbQ1YfReIVzo1ypkKAUV-10" value="User Terdaftar" style="rhombus;whiteSpace=wrap;html=1;fillColor=#ffffc0;strokeColor=#ff0000;" parent="1c1d494c118603dd-3" vertex="1">
          <mxGeometry x="70" y="230" width="110" height="60" as="geometry" />
        </mxCell>
        <mxCell id="HbQ1YfReIVzo1ypkKAUV-11" value="no" style="edgeStyle=orthogonalEdgeStyle;html=1;align=left;verticalAlign=bottom;endArrow=open;endSize=8;strokeColor=#ff0000;rounded=0;entryX=1;entryY=0.5;entryDx=0;entryDy=0;" parent="1c1d494c118603dd-3" source="HbQ1YfReIVzo1ypkKAUV-10" target="HbQ1YfReIVzo1ypkKAUV-6" edge="1">
          <mxGeometry x="-0.0769" y="20" relative="1" as="geometry">
            <mxPoint x="230" y="270" as="targetPoint" />
            <Array as="points">
              <mxPoint x="230" y="260" />
              <mxPoint x="230" y="160" />
            </Array>
            <mxPoint as="offset" />
          </mxGeometry>
        </mxCell>
        <mxCell id="HbQ1YfReIVzo1ypkKAUV-12" value="yes" style="edgeStyle=orthogonalEdgeStyle;html=1;align=left;verticalAlign=top;endArrow=open;endSize=8;strokeColor=#ff0000;rounded=0;entryX=0.5;entryY=0;entryDx=0;entryDy=0;" parent="1c1d494c118603dd-3" source="HbQ1YfReIVzo1ypkKAUV-10" target="HbQ1YfReIVzo1ypkKAUV-13" edge="1">
          <mxGeometry x="-1" relative="1" as="geometry">
            <mxPoint x="90" y="350" as="targetPoint" />
            <Array as="points">
              <mxPoint x="125" y="340" />
              <mxPoint x="125" y="340" />
            </Array>
          </mxGeometry>
        </mxCell>
        <mxCell id="HbQ1YfReIVzo1ypkKAUV-13" value="Tampil Halaman Utama" style="rounded=1;whiteSpace=wrap;html=1;arcSize=40;fontColor=#000000;fillColor=#ffffc0;strokeColor=#ff0000;" parent="1c1d494c118603dd-3" vertex="1">
          <mxGeometry x="65" y="360" width="120" height="40" as="geometry" />
        </mxCell>
        <mxCell id="HbQ1YfReIVzo1ypkKAUV-14" value="" style="edgeStyle=orthogonalEdgeStyle;html=1;verticalAlign=bottom;endArrow=open;endSize=8;strokeColor=#ff0000;rounded=0;" parent="1c1d494c118603dd-3" source="HbQ1YfReIVzo1ypkKAUV-13" target="HbQ1YfReIVzo1ypkKAUV-15" edge="1">
          <mxGeometry relative="1" as="geometry">
            <mxPoint x="130" y="460" as="targetPoint" />
            <Array as="points" />
          </mxGeometry>
        </mxCell>
        <mxCell id="HbQ1YfReIVzo1ypkKAUV-15" value="" style="ellipse;html=1;shape=endState;fillColor=#000000;strokeColor=#ff0000;" parent="1c1d494c118603dd-3" vertex="1">
          <mxGeometry x="110" y="470" width="30" height="30" as="geometry" />
        </mxCell>
        <mxCell id="HbQ1YfReIVzo1ypkKAUV-18" value="KendaraanBekas" style="swimlane;html=1;childLayout=stackLayout;startSize=20;rounded=0;shadow=0;comic=0;labelBackgroundColor=none;strokeWidth=1;fontFamily=Verdana;fontSize=12;align=center;" parent="1" vertex="1">
          <mxGeometry x="570" y="20" width="510" height="700" as="geometry" />
        </mxCell>
        <mxCell id="HbQ1YfReIVzo1ypkKAUV-19" value="User" style="swimlane;html=1;startSize=20;" parent="HbQ1YfReIVzo1ypkKAUV-18" vertex="1">
          <mxGeometry y="20" width="250" height="680" as="geometry" />
        </mxCell>
        <mxCell id="HbQ1YfReIVzo1ypkKAUV-20" value="" style="ellipse;html=1;shape=startState;fillColor=#000000;strokeColor=#ff0000;" parent="HbQ1YfReIVzo1ypkKAUV-19" vertex="1">
          <mxGeometry x="110" y="40" width="30" height="30" as="geometry" />
        </mxCell>
        <mxCell id="HbQ1YfReIVzo1ypkKAUV-21" value="" style="edgeStyle=orthogonalEdgeStyle;html=1;verticalAlign=bottom;endArrow=open;endSize=8;strokeColor=#ff0000;rounded=0;entryX=0.5;entryY=0;entryDx=0;entryDy=0;" parent="HbQ1YfReIVzo1ypkKAUV-19" source="HbQ1YfReIVzo1ypkKAUV-20" target="HbQ1YfReIVzo1ypkKAUV-22" edge="1">
          <mxGeometry relative="1" as="geometry">
            <mxPoint x="125" y="130" as="targetPoint" />
          </mxGeometry>
        </mxCell>
        <mxCell id="HbQ1YfReIVzo1ypkKAUV-22" value="Akses Aplikasi KendaraanBekas" style="rounded=1;whiteSpace=wrap;html=1;arcSize=40;fontColor=#000000;fillColor=#ffffc0;strokeColor=#ff0000;" parent="HbQ1YfReIVzo1ypkKAUV-19" vertex="1">
          <mxGeometry x="65" y="140" width="120" height="40" as="geometry" />
        </mxCell>
        <mxCell id="HbQ1YfReIVzo1ypkKAUV-36" value="Register" style="text;html=1;strokeColor=none;fillColor=none;align=center;verticalAlign=middle;whiteSpace=wrap;rounded=0;" parent="HbQ1YfReIVzo1ypkKAUV-19" vertex="1">
          <mxGeometry y="650" width="60" height="30" as="geometry" />
        </mxCell>
        <mxCell id="HbQ1YfReIVzo1ypkKAUV-37" value="Punya Akun ?" style="rhombus;whiteSpace=wrap;html=1;fillColor=#ffffc0;strokeColor=#ff0000;" parent="HbQ1YfReIVzo1ypkKAUV-19" vertex="1">
          <mxGeometry x="70" y="230" width="110" height="40" as="geometry" />
        </mxCell>
        <mxCell id="HbQ1YfReIVzo1ypkKAUV-38" value="no" style="edgeStyle=orthogonalEdgeStyle;html=1;align=left;verticalAlign=bottom;endArrow=open;endSize=8;strokeColor=#ff0000;rounded=0;entryX=0.5;entryY=0;entryDx=0;entryDy=0;" parent="HbQ1YfReIVzo1ypkKAUV-19" source="HbQ1YfReIVzo1ypkKAUV-37" target="HbQ1YfReIVzo1ypkKAUV-46" edge="1">
          <mxGeometry x="0.3343" relative="1" as="geometry">
            <mxPoint x="230" y="350" as="targetPoint" />
            <Array as="points">
              <mxPoint x="200" y="250" />
            </Array>
            <mxPoint as="offset" />
          </mxGeometry>
        </mxCell>
        <mxCell id="HbQ1YfReIVzo1ypkKAUV-39" value="yes" style="edgeStyle=orthogonalEdgeStyle;html=1;align=left;verticalAlign=top;endArrow=open;endSize=8;strokeColor=#ff0000;rounded=0;entryX=0.5;entryY=0;entryDx=0;entryDy=0;" parent="HbQ1YfReIVzo1ypkKAUV-19" source="HbQ1YfReIVzo1ypkKAUV-37" target="HbQ1YfReIVzo1ypkKAUV-40" edge="1">
          <mxGeometry x="-0.1095" relative="1" as="geometry">
            <mxPoint x="75" y="410" as="targetPoint" />
            <Array as="points">
              <mxPoint x="50" y="250" />
            </Array>
            <mxPoint as="offset" />
          </mxGeometry>
        </mxCell>
        <mxCell id="HbQ1YfReIVzo1ypkKAUV-40" value="Login" style="rounded=1;whiteSpace=wrap;html=1;arcSize=40;fontColor=#000000;fillColor=#ffffc0;strokeColor=#ff0000;" parent="HbQ1YfReIVzo1ypkKAUV-19" vertex="1">
          <mxGeometry x="10" y="320" width="80" height="40" as="geometry" />
        </mxCell>
        <mxCell id="HbQ1YfReIVzo1ypkKAUV-41" value="" style="edgeStyle=orthogonalEdgeStyle;html=1;verticalAlign=bottom;endArrow=open;endSize=8;strokeColor=#ff0000;rounded=0;entryX=0.498;entryY=0.169;entryDx=0;entryDy=0;entryPerimeter=0;" parent="HbQ1YfReIVzo1ypkKAUV-19" source="HbQ1YfReIVzo1ypkKAUV-40" target="HbQ1YfReIVzo1ypkKAUV-44" edge="1">
          <mxGeometry relative="1" as="geometry">
            <mxPoint x="100" y="520" as="targetPoint" />
          </mxGeometry>
        </mxCell>
        <mxCell id="HbQ1YfReIVzo1ypkKAUV-44" value="" style="ellipse;html=1;shape=endState;fillColor=#000000;strokeColor=#ff0000;" parent="HbQ1YfReIVzo1ypkKAUV-19" vertex="1">
          <mxGeometry x="35" y="400" width="30" height="30" as="geometry" />
        </mxCell>
        <mxCell id="HbQ1YfReIVzo1ypkKAUV-46" value="Klik Register" style="rounded=1;whiteSpace=wrap;html=1;arcSize=40;fontColor=#000000;fillColor=#ffffc0;strokeColor=#ff0000;" parent="HbQ1YfReIVzo1ypkKAUV-19" vertex="1">
          <mxGeometry x="160" y="320" width="80" height="40" as="geometry" />
        </mxCell>
        <mxCell id="HbQ1YfReIVzo1ypkKAUV-52" value="&lt;i&gt;Input&lt;/i&gt;&amp;nbsp;Data Diri" style="rounded=1;whiteSpace=wrap;html=1;arcSize=40;fontColor=#000000;fillColor=#ffffc0;strokeColor=#ff0000;" parent="HbQ1YfReIVzo1ypkKAUV-19" vertex="1">
          <mxGeometry x="110" y="390" width="120" height="40" as="geometry" />
        </mxCell>
        <mxCell id="HbQ1YfReIVzo1ypkKAUV-24" value="" style="edgeStyle=orthogonalEdgeStyle;html=1;verticalAlign=bottom;endArrow=open;endSize=8;strokeColor=#ff0000;rounded=0;entryX=0;entryY=0.5;entryDx=0;entryDy=0;" parent="HbQ1YfReIVzo1ypkKAUV-18" source="HbQ1YfReIVzo1ypkKAUV-22" target="HbQ1YfReIVzo1ypkKAUV-28" edge="1">
          <mxGeometry relative="1" as="geometry">
            <mxPoint x="125" y="260" as="targetPoint" />
          </mxGeometry>
        </mxCell>
        <mxCell id="HbQ1YfReIVzo1ypkKAUV-45" style="edgeStyle=orthogonalEdgeStyle;rounded=0;orthogonalLoop=1;jettySize=auto;html=1;entryX=0.5;entryY=0;entryDx=0;entryDy=0;endArrow=open;endFill=0;strokeColor=#FF3333;" parent="HbQ1YfReIVzo1ypkKAUV-18" source="HbQ1YfReIVzo1ypkKAUV-28" target="HbQ1YfReIVzo1ypkKAUV-37" edge="1">
          <mxGeometry relative="1" as="geometry">
            <Array as="points">
              <mxPoint x="375" y="230" />
              <mxPoint x="125" y="230" />
            </Array>
          </mxGeometry>
        </mxCell>
        <mxCell id="HbQ1YfReIVzo1ypkKAUV-47" value="" style="edgeStyle=orthogonalEdgeStyle;html=1;verticalAlign=bottom;endArrow=open;endSize=8;strokeColor=#ff0000;rounded=0;entryX=0;entryY=0.5;entryDx=0;entryDy=0;" parent="HbQ1YfReIVzo1ypkKAUV-18" source="HbQ1YfReIVzo1ypkKAUV-46" target="HbQ1YfReIVzo1ypkKAUV-48" edge="1">
          <mxGeometry relative="1" as="geometry">
            <mxPoint x="170" y="440" as="targetPoint" />
          </mxGeometry>
        </mxCell>
        <mxCell id="HbQ1YfReIVzo1ypkKAUV-49" value="" style="edgeStyle=orthogonalEdgeStyle;html=1;verticalAlign=bottom;endArrow=open;endSize=8;strokeColor=#ff0000;rounded=0;entryX=1;entryY=0.5;entryDx=0;entryDy=0;" parent="HbQ1YfReIVzo1ypkKAUV-18" source="HbQ1YfReIVzo1ypkKAUV-48" target="HbQ1YfReIVzo1ypkKAUV-52" edge="1">
          <mxGeometry relative="1" as="geometry">
            <mxPoint x="380" y="440" as="targetPoint" />
            <Array as="points">
              <mxPoint x="380" y="430" />
            </Array>
          </mxGeometry>
        </mxCell>
        <mxCell id="HbQ1YfReIVzo1ypkKAUV-53" value="" style="edgeStyle=orthogonalEdgeStyle;html=1;verticalAlign=bottom;endArrow=open;endSize=8;strokeColor=#ff0000;rounded=0;entryX=0;entryY=0.5;entryDx=0;entryDy=0;" parent="HbQ1YfReIVzo1ypkKAUV-18" source="HbQ1YfReIVzo1ypkKAUV-52" target="HbQ1YfReIVzo1ypkKAUV-54" edge="1">
          <mxGeometry relative="1" as="geometry">
            <mxPoint x="170" y="510" as="targetPoint" />
            <Array as="points">
              <mxPoint x="170" y="483" />
              <mxPoint x="275" y="483" />
            </Array>
          </mxGeometry>
        </mxCell>
        <mxCell id="HbQ1YfReIVzo1ypkKAUV-27" value="System" style="swimlane;html=1;startSize=20;" parent="HbQ1YfReIVzo1ypkKAUV-18" vertex="1">
          <mxGeometry x="250" y="20" width="260" height="680" as="geometry" />
        </mxCell>
        <mxCell id="HbQ1YfReIVzo1ypkKAUV-28" value="Form Login" style="rounded=1;whiteSpace=wrap;html=1;arcSize=40;fontColor=#000000;fillColor=#ffffc0;strokeColor=#ff0000;" parent="HbQ1YfReIVzo1ypkKAUV-27" vertex="1">
          <mxGeometry x="65" y="140" width="120" height="40" as="geometry" />
        </mxCell>
        <mxCell id="HbQ1YfReIVzo1ypkKAUV-48" value="Form Register" style="rounded=1;whiteSpace=wrap;html=1;arcSize=40;fontColor=#000000;fillColor=#ffffc0;strokeColor=#ff0000;" parent="HbQ1YfReIVzo1ypkKAUV-27" vertex="1">
          <mxGeometry x="70" y="320" width="120" height="40" as="geometry" />
        </mxCell>
        <mxCell id="HbQ1YfReIVzo1ypkKAUV-54" value="User Terdaftar" style="rhombus;whiteSpace=wrap;html=1;fillColor=#ffffc0;strokeColor=#ff0000;" parent="HbQ1YfReIVzo1ypkKAUV-27" vertex="1">
          <mxGeometry x="70" y="435" width="110" height="55" as="geometry" />
        </mxCell>
        <mxCell id="HbQ1YfReIVzo1ypkKAUV-55" value="no" style="edgeStyle=orthogonalEdgeStyle;html=1;align=left;verticalAlign=bottom;endArrow=open;endSize=8;strokeColor=#ff0000;rounded=0;entryX=1;entryY=0.5;entryDx=0;entryDy=0;" parent="HbQ1YfReIVzo1ypkKAUV-27" source="HbQ1YfReIVzo1ypkKAUV-54" target="HbQ1YfReIVzo1ypkKAUV-28" edge="1">
          <mxGeometry x="-1" y="-71" relative="1" as="geometry">
            <mxPoint x="215" y="455" as="targetPoint" />
            <Array as="points">
              <mxPoint x="220" y="463" />
              <mxPoint x="220" y="160" />
            </Array>
            <mxPoint x="-55" y="-26" as="offset" />
          </mxGeometry>
        </mxCell>
        <mxCell id="HbQ1YfReIVzo1ypkKAUV-56" value="yes" style="edgeStyle=orthogonalEdgeStyle;html=1;align=left;verticalAlign=top;endArrow=open;endSize=8;strokeColor=#ff0000;rounded=0;entryX=0.5;entryY=0;entryDx=0;entryDy=0;" parent="HbQ1YfReIVzo1ypkKAUV-27" source="HbQ1YfReIVzo1ypkKAUV-54" target="HbQ1YfReIVzo1ypkKAUV-57" edge="1">
          <mxGeometry x="-1" y="212" relative="1" as="geometry">
            <mxPoint x="75" y="535" as="targetPoint" />
            <mxPoint x="-117" y="-190" as="offset" />
          </mxGeometry>
        </mxCell>
        <mxCell id="HbQ1YfReIVzo1ypkKAUV-57" value="Membuat User Baru" style="rounded=1;whiteSpace=wrap;html=1;arcSize=40;fontColor=#000000;fillColor=#ffffc0;strokeColor=#ff0000;" parent="HbQ1YfReIVzo1ypkKAUV-27" vertex="1">
          <mxGeometry x="65" y="520" width="120" height="40" as="geometry" />
        </mxCell>
        <mxCell id="HbQ1YfReIVzo1ypkKAUV-58" value="" style="edgeStyle=orthogonalEdgeStyle;html=1;verticalAlign=bottom;endArrow=open;endSize=8;strokeColor=#ff0000;rounded=0;entryX=0.5;entryY=0;entryDx=0;entryDy=0;" parent="HbQ1YfReIVzo1ypkKAUV-27" source="HbQ1YfReIVzo1ypkKAUV-57" target="HbQ1YfReIVzo1ypkKAUV-59" edge="1">
          <mxGeometry relative="1" as="geometry">
            <mxPoint x="150" y="635" as="targetPoint" />
            <Array as="points" />
          </mxGeometry>
        </mxCell>
        <mxCell id="HbQ1YfReIVzo1ypkKAUV-59" value="Tampil Halaman Utama" style="rounded=1;whiteSpace=wrap;html=1;arcSize=40;fontColor=#000000;fillColor=#ffffc0;strokeColor=#ff0000;" parent="HbQ1YfReIVzo1ypkKAUV-27" vertex="1">
          <mxGeometry x="65" y="580" width="120" height="40" as="geometry" />
        </mxCell>
        <mxCell id="HbQ1YfReIVzo1ypkKAUV-60" value="" style="edgeStyle=orthogonalEdgeStyle;html=1;verticalAlign=bottom;endArrow=open;endSize=8;strokeColor=#ff0000;rounded=0;entryX=0.5;entryY=0;entryDx=0;entryDy=0;" parent="HbQ1YfReIVzo1ypkKAUV-27" source="HbQ1YfReIVzo1ypkKAUV-59" target="HbQ1YfReIVzo1ypkKAUV-61" edge="1">
          <mxGeometry relative="1" as="geometry">
            <mxPoint x="125" y="740" as="targetPoint" />
          </mxGeometry>
        </mxCell>
        <mxCell id="HbQ1YfReIVzo1ypkKAUV-61" value="" style="ellipse;html=1;shape=endState;fillColor=#000000;strokeColor=#ff0000;" parent="HbQ1YfReIVzo1ypkKAUV-27" vertex="1">
          <mxGeometry x="110" y="640" width="30" height="30" as="geometry" />
        </mxCell>
        <mxCell id="HbQ1YfReIVzo1ypkKAUV-63" value="KendaraanBekas" style="swimlane;html=1;childLayout=stackLayout;startSize=20;rounded=0;shadow=0;comic=0;labelBackgroundColor=none;strokeWidth=1;fontFamily=Verdana;fontSize=12;align=center;" parent="1" vertex="1">
          <mxGeometry x="1100" y="20" width="510" height="700" as="geometry" />
        </mxCell>
        <mxCell id="HbQ1YfReIVzo1ypkKAUV-64" value="User" style="swimlane;html=1;startSize=20;" parent="HbQ1YfReIVzo1ypkKAUV-63" vertex="1">
          <mxGeometry y="20" width="250" height="680" as="geometry" />
        </mxCell>
        <mxCell id="HbQ1YfReIVzo1ypkKAUV-65" value="" style="ellipse;html=1;shape=startState;fillColor=#000000;strokeColor=#ff0000;" parent="HbQ1YfReIVzo1ypkKAUV-64" vertex="1">
          <mxGeometry x="110" y="40" width="30" height="30" as="geometry" />
        </mxCell>
        <mxCell id="HbQ1YfReIVzo1ypkKAUV-66" value="" style="edgeStyle=orthogonalEdgeStyle;html=1;verticalAlign=bottom;endArrow=open;endSize=8;strokeColor=#ff0000;rounded=0;entryX=0.5;entryY=0;entryDx=0;entryDy=0;" parent="HbQ1YfReIVzo1ypkKAUV-64" source="HbQ1YfReIVzo1ypkKAUV-65" target="HbQ1YfReIVzo1ypkKAUV-67" edge="1">
          <mxGeometry relative="1" as="geometry">
            <mxPoint x="125" y="130" as="targetPoint" />
          </mxGeometry>
        </mxCell>
        <mxCell id="HbQ1YfReIVzo1ypkKAUV-67" value="Akses Aplikasi KendaraanBekas" style="rounded=1;whiteSpace=wrap;html=1;arcSize=40;fontColor=#000000;fillColor=#ffffc0;strokeColor=#ff0000;" parent="HbQ1YfReIVzo1ypkKAUV-64" vertex="1">
          <mxGeometry x="65" y="140" width="120" height="40" as="geometry" />
        </mxCell>
        <mxCell id="HbQ1YfReIVzo1ypkKAUV-68" value="Ubah Password" style="text;html=1;strokeColor=none;fillColor=none;align=center;verticalAlign=middle;whiteSpace=wrap;rounded=0;" parent="HbQ1YfReIVzo1ypkKAUV-64" vertex="1">
          <mxGeometry y="650" width="100" height="30" as="geometry" />
        </mxCell>
        <mxCell id="HbQ1YfReIVzo1ypkKAUV-93" value="Login" style="rounded=1;whiteSpace=wrap;html=1;arcSize=40;fontColor=#000000;fillColor=#ffffc0;strokeColor=#ff0000;" parent="HbQ1YfReIVzo1ypkKAUV-64" vertex="1">
          <mxGeometry x="65" y="230" width="120" height="40" as="geometry" />
        </mxCell>
        <mxCell id="HbQ1YfReIVzo1ypkKAUV-97" value="Klik My Profile" style="rounded=1;whiteSpace=wrap;html=1;arcSize=40;fontColor=#000000;fillColor=#ffffc0;strokeColor=#ff0000;" parent="HbQ1YfReIVzo1ypkKAUV-64" vertex="1">
          <mxGeometry x="70" y="290" width="120" height="40" as="geometry" />
        </mxCell>
        <mxCell id="HbQ1YfReIVzo1ypkKAUV-98" value="" style="edgeStyle=orthogonalEdgeStyle;html=1;verticalAlign=bottom;endArrow=open;endSize=8;strokeColor=#ff0000;rounded=0;" parent="HbQ1YfReIVzo1ypkKAUV-64" source="HbQ1YfReIVzo1ypkKAUV-97" target="HbQ1YfReIVzo1ypkKAUV-99" edge="1">
          <mxGeometry relative="1" as="geometry">
            <mxPoint x="130" y="390" as="targetPoint" />
          </mxGeometry>
        </mxCell>
        <mxCell id="HbQ1YfReIVzo1ypkKAUV-99" value="Klik Ubah Password" style="rounded=1;whiteSpace=wrap;html=1;arcSize=40;fontColor=#000000;fillColor=#ffffc0;strokeColor=#ff0000;" parent="HbQ1YfReIVzo1ypkKAUV-64" vertex="1">
          <mxGeometry x="70" y="360" width="120" height="40" as="geometry" />
        </mxCell>
        <mxCell id="HbQ1YfReIVzo1ypkKAUV-105" value="&lt;i&gt;Input &lt;/i&gt;&amp;nbsp;Password lama dan Password Baru" style="rounded=1;whiteSpace=wrap;html=1;arcSize=40;fontColor=#000000;fillColor=#ffffc0;strokeColor=#ff0000;" parent="HbQ1YfReIVzo1ypkKAUV-64" vertex="1">
          <mxGeometry x="70" y="420" width="120" height="40" as="geometry" />
        </mxCell>
        <mxCell id="HbQ1YfReIVzo1ypkKAUV-106" value="" style="edgeStyle=orthogonalEdgeStyle;html=1;verticalAlign=bottom;endArrow=open;endSize=8;strokeColor=#ff0000;rounded=0;entryX=0.5;entryY=0;entryDx=0;entryDy=0;" parent="HbQ1YfReIVzo1ypkKAUV-64" source="HbQ1YfReIVzo1ypkKAUV-105" target="HbQ1YfReIVzo1ypkKAUV-107" edge="1">
          <mxGeometry relative="1" as="geometry">
            <mxPoint x="130" y="520" as="targetPoint" />
          </mxGeometry>
        </mxCell>
        <mxCell id="HbQ1YfReIVzo1ypkKAUV-107" value="Menekan Tombol Save" style="rounded=1;whiteSpace=wrap;html=1;arcSize=40;fontColor=#000000;fillColor=#ffffc0;strokeColor=#ff0000;" parent="HbQ1YfReIVzo1ypkKAUV-64" vertex="1">
          <mxGeometry x="70" y="490" width="120" height="40" as="geometry" />
        </mxCell>
        <mxCell id="HbQ1YfReIVzo1ypkKAUV-77" value="" style="edgeStyle=orthogonalEdgeStyle;html=1;verticalAlign=bottom;endArrow=open;endSize=8;strokeColor=#ff0000;rounded=0;entryX=0;entryY=0.5;entryDx=0;entryDy=0;" parent="HbQ1YfReIVzo1ypkKAUV-63" source="HbQ1YfReIVzo1ypkKAUV-67" target="HbQ1YfReIVzo1ypkKAUV-83" edge="1">
          <mxGeometry relative="1" as="geometry">
            <mxPoint x="125" y="260" as="targetPoint" />
          </mxGeometry>
        </mxCell>
        <mxCell id="HbQ1YfReIVzo1ypkKAUV-78" style="edgeStyle=orthogonalEdgeStyle;rounded=0;orthogonalLoop=1;jettySize=auto;html=1;endArrow=open;endFill=0;strokeColor=#FF3333;" parent="HbQ1YfReIVzo1ypkKAUV-63" source="HbQ1YfReIVzo1ypkKAUV-83" target="HbQ1YfReIVzo1ypkKAUV-93" edge="1">
          <mxGeometry relative="1" as="geometry">
            <Array as="points">
              <mxPoint x="375" y="230" />
              <mxPoint x="125" y="230" />
            </Array>
            <mxPoint x="125" y="250" as="targetPoint" />
          </mxGeometry>
        </mxCell>
        <mxCell id="HbQ1YfReIVzo1ypkKAUV-82" value="System" style="swimlane;html=1;startSize=20;" parent="HbQ1YfReIVzo1ypkKAUV-63" vertex="1">
          <mxGeometry x="250" y="20" width="260" height="680" as="geometry" />
        </mxCell>
        <mxCell id="HbQ1YfReIVzo1ypkKAUV-83" value="Form Login" style="rounded=1;whiteSpace=wrap;html=1;arcSize=40;fontColor=#000000;fillColor=#ffffc0;strokeColor=#ff0000;" parent="HbQ1YfReIVzo1ypkKAUV-82" vertex="1">
          <mxGeometry x="65" y="140" width="120" height="40" as="geometry" />
        </mxCell>
        <mxCell id="HbQ1YfReIVzo1ypkKAUV-95" value="Tampil Halaman Utama" style="rounded=1;whiteSpace=wrap;html=1;arcSize=40;fontColor=#000000;fillColor=#ffffc0;strokeColor=#ff0000;" parent="HbQ1YfReIVzo1ypkKAUV-82" vertex="1">
          <mxGeometry x="65" y="230" width="120" height="40" as="geometry" />
        </mxCell>
        <mxCell id="HbQ1YfReIVzo1ypkKAUV-103" value="Form Ubah Password" style="rounded=1;whiteSpace=wrap;html=1;arcSize=40;fontColor=#000000;fillColor=#ffffc0;strokeColor=#ff0000;" parent="HbQ1YfReIVzo1ypkKAUV-82" vertex="1">
          <mxGeometry x="65" y="360" width="120" height="40" as="geometry" />
        </mxCell>
        <mxCell id="HbQ1YfReIVzo1ypkKAUV-109" value="&lt;i&gt;Update&lt;/i&gt;&amp;nbsp;Password Baru" style="rounded=1;whiteSpace=wrap;html=1;arcSize=40;fontColor=#000000;fillColor=#ffffc0;strokeColor=#ff0000;" parent="HbQ1YfReIVzo1ypkKAUV-82" vertex="1">
          <mxGeometry x="70" y="490" width="120" height="40" as="geometry" />
        </mxCell>
        <mxCell id="HbQ1YfReIVzo1ypkKAUV-110" value="" style="edgeStyle=orthogonalEdgeStyle;html=1;verticalAlign=bottom;endArrow=open;endSize=8;strokeColor=#ff0000;rounded=0;entryX=0.5;entryY=0;entryDx=0;entryDy=0;" parent="HbQ1YfReIVzo1ypkKAUV-82" source="HbQ1YfReIVzo1ypkKAUV-109" target="HbQ1YfReIVzo1ypkKAUV-111" edge="1">
          <mxGeometry relative="1" as="geometry">
            <mxPoint x="130" y="590" as="targetPoint" />
          </mxGeometry>
        </mxCell>
        <mxCell id="HbQ1YfReIVzo1ypkKAUV-111" value="" style="ellipse;html=1;shape=endState;fillColor=#000000;strokeColor=#ff0000;" parent="HbQ1YfReIVzo1ypkKAUV-82" vertex="1">
          <mxGeometry x="115" y="600" width="30" height="30" as="geometry" />
        </mxCell>
        <mxCell id="HbQ1YfReIVzo1ypkKAUV-94" value="" style="edgeStyle=orthogonalEdgeStyle;html=1;verticalAlign=bottom;endArrow=open;endSize=8;strokeColor=#ff0000;rounded=0;entryX=0;entryY=0.5;entryDx=0;entryDy=0;" parent="HbQ1YfReIVzo1ypkKAUV-63" source="HbQ1YfReIVzo1ypkKAUV-93" target="HbQ1YfReIVzo1ypkKAUV-95" edge="1">
          <mxGeometry relative="1" as="geometry">
            <mxPoint x="125" y="350" as="targetPoint" />
          </mxGeometry>
        </mxCell>
        <mxCell id="HbQ1YfReIVzo1ypkKAUV-96" value="" style="edgeStyle=orthogonalEdgeStyle;html=1;verticalAlign=bottom;endArrow=open;endSize=8;strokeColor=#ff0000;rounded=0;entryX=1;entryY=0.5;entryDx=0;entryDy=0;" parent="HbQ1YfReIVzo1ypkKAUV-63" source="HbQ1YfReIVzo1ypkKAUV-95" target="HbQ1YfReIVzo1ypkKAUV-97" edge="1">
          <mxGeometry relative="1" as="geometry">
            <mxPoint x="380" y="360" as="targetPoint" />
            <Array as="points">
              <mxPoint x="375" y="330" />
            </Array>
          </mxGeometry>
        </mxCell>
        <mxCell id="HbQ1YfReIVzo1ypkKAUV-100" value="" style="edgeStyle=orthogonalEdgeStyle;html=1;verticalAlign=bottom;endArrow=open;endSize=8;strokeColor=#ff0000;rounded=0;entryX=0;entryY=0.5;entryDx=0;entryDy=0;" parent="HbQ1YfReIVzo1ypkKAUV-63" source="HbQ1YfReIVzo1ypkKAUV-99" target="HbQ1YfReIVzo1ypkKAUV-103" edge="1">
          <mxGeometry relative="1" as="geometry">
            <mxPoint x="130" y="510" as="targetPoint" />
          </mxGeometry>
        </mxCell>
        <mxCell id="HbQ1YfReIVzo1ypkKAUV-104" value="" style="edgeStyle=orthogonalEdgeStyle;html=1;verticalAlign=bottom;endArrow=open;endSize=8;strokeColor=#ff0000;rounded=0;entryX=1;entryY=0.5;entryDx=0;entryDy=0;" parent="HbQ1YfReIVzo1ypkKAUV-63" source="HbQ1YfReIVzo1ypkKAUV-103" target="HbQ1YfReIVzo1ypkKAUV-105" edge="1">
          <mxGeometry relative="1" as="geometry">
            <mxPoint x="375" y="460" as="targetPoint" />
            <Array as="points">
              <mxPoint x="375" y="460" />
            </Array>
          </mxGeometry>
        </mxCell>
        <mxCell id="HbQ1YfReIVzo1ypkKAUV-108" value="" style="edgeStyle=orthogonalEdgeStyle;html=1;verticalAlign=bottom;endArrow=open;endSize=8;strokeColor=#ff0000;rounded=0;entryX=0;entryY=0.5;entryDx=0;entryDy=0;" parent="HbQ1YfReIVzo1ypkKAUV-63" source="HbQ1YfReIVzo1ypkKAUV-107" target="HbQ1YfReIVzo1ypkKAUV-109" edge="1">
          <mxGeometry relative="1" as="geometry">
            <mxPoint x="130" y="660" as="targetPoint" />
          </mxGeometry>
        </mxCell>
        <mxCell id="HbQ1YfReIVzo1ypkKAUV-112" value="KendaraanBekas" style="swimlane;html=1;childLayout=stackLayout;startSize=20;rounded=0;shadow=0;comic=0;labelBackgroundColor=none;strokeWidth=1;fontFamily=Verdana;fontSize=12;align=center;" parent="1" vertex="1">
          <mxGeometry x="1630" y="20" width="510" height="700" as="geometry" />
        </mxCell>
        <mxCell id="HbQ1YfReIVzo1ypkKAUV-113" value="User" style="swimlane;html=1;startSize=20;" parent="HbQ1YfReIVzo1ypkKAUV-112" vertex="1">
          <mxGeometry y="20" width="250" height="680" as="geometry" />
        </mxCell>
        <mxCell id="HbQ1YfReIVzo1ypkKAUV-114" value="" style="ellipse;html=1;shape=startState;fillColor=#000000;strokeColor=#ff0000;" parent="HbQ1YfReIVzo1ypkKAUV-113" vertex="1">
          <mxGeometry x="110" y="40" width="30" height="30" as="geometry" />
        </mxCell>
        <mxCell id="HbQ1YfReIVzo1ypkKAUV-115" value="" style="edgeStyle=orthogonalEdgeStyle;html=1;verticalAlign=bottom;endArrow=open;endSize=8;strokeColor=#ff0000;rounded=0;entryX=0.5;entryY=0;entryDx=0;entryDy=0;" parent="HbQ1YfReIVzo1ypkKAUV-113" source="HbQ1YfReIVzo1ypkKAUV-114" target="HbQ1YfReIVzo1ypkKAUV-116" edge="1">
          <mxGeometry relative="1" as="geometry">
            <mxPoint x="125" y="130" as="targetPoint" />
          </mxGeometry>
        </mxCell>
        <mxCell id="HbQ1YfReIVzo1ypkKAUV-116" value="Akses Aplikasi KendaraanBekas" style="rounded=1;whiteSpace=wrap;html=1;arcSize=40;fontColor=#000000;fillColor=#ffffc0;strokeColor=#ff0000;" parent="HbQ1YfReIVzo1ypkKAUV-113" vertex="1">
          <mxGeometry x="65" y="140" width="120" height="40" as="geometry" />
        </mxCell>
        <mxCell id="HbQ1YfReIVzo1ypkKAUV-117" value="Edit Profile" style="text;html=1;strokeColor=none;fillColor=none;align=center;verticalAlign=middle;whiteSpace=wrap;rounded=0;" parent="HbQ1YfReIVzo1ypkKAUV-113" vertex="1">
          <mxGeometry y="650" width="100" height="30" as="geometry" />
        </mxCell>
        <mxCell id="HbQ1YfReIVzo1ypkKAUV-118" value="Login" style="rounded=1;whiteSpace=wrap;html=1;arcSize=40;fontColor=#000000;fillColor=#ffffc0;strokeColor=#ff0000;" parent="HbQ1YfReIVzo1ypkKAUV-113" vertex="1">
          <mxGeometry x="65" y="230" width="120" height="40" as="geometry" />
        </mxCell>
        <mxCell id="HbQ1YfReIVzo1ypkKAUV-119" value="Klik My Profile" style="rounded=1;whiteSpace=wrap;html=1;arcSize=40;fontColor=#000000;fillColor=#ffffc0;strokeColor=#ff0000;" parent="HbQ1YfReIVzo1ypkKAUV-113" vertex="1">
          <mxGeometry x="70" y="290" width="120" height="40" as="geometry" />
        </mxCell>
        <mxCell id="HbQ1YfReIVzo1ypkKAUV-120" value="" style="edgeStyle=orthogonalEdgeStyle;html=1;verticalAlign=bottom;endArrow=open;endSize=8;strokeColor=#ff0000;rounded=0;" parent="HbQ1YfReIVzo1ypkKAUV-113" source="HbQ1YfReIVzo1ypkKAUV-119" target="HbQ1YfReIVzo1ypkKAUV-121" edge="1">
          <mxGeometry relative="1" as="geometry">
            <mxPoint x="130" y="390" as="targetPoint" />
          </mxGeometry>
        </mxCell>
        <mxCell id="HbQ1YfReIVzo1ypkKAUV-121" value="Klik &amp;nbsp;Infromasi Akun" style="rounded=1;whiteSpace=wrap;html=1;arcSize=40;fontColor=#000000;fillColor=#ffffc0;strokeColor=#ff0000;" parent="HbQ1YfReIVzo1ypkKAUV-113" vertex="1">
          <mxGeometry x="70" y="360" width="120" height="40" as="geometry" />
        </mxCell>
        <mxCell id="HbQ1YfReIVzo1ypkKAUV-122" value="&lt;i&gt;Merubah Informasi Akun&lt;/i&gt;" style="rounded=1;whiteSpace=wrap;html=1;arcSize=40;fontColor=#000000;fillColor=#ffffc0;strokeColor=#ff0000;" parent="HbQ1YfReIVzo1ypkKAUV-113" vertex="1">
          <mxGeometry x="70" y="420" width="120" height="40" as="geometry" />
        </mxCell>
        <mxCell id="HbQ1YfReIVzo1ypkKAUV-123" value="" style="edgeStyle=orthogonalEdgeStyle;html=1;verticalAlign=bottom;endArrow=open;endSize=8;strokeColor=#ff0000;rounded=0;entryX=0.5;entryY=0;entryDx=0;entryDy=0;" parent="HbQ1YfReIVzo1ypkKAUV-113" source="HbQ1YfReIVzo1ypkKAUV-122" target="HbQ1YfReIVzo1ypkKAUV-124" edge="1">
          <mxGeometry relative="1" as="geometry">
            <mxPoint x="130" y="520" as="targetPoint" />
          </mxGeometry>
        </mxCell>
        <mxCell id="HbQ1YfReIVzo1ypkKAUV-124" value="Menekan Tombol Save" style="rounded=1;whiteSpace=wrap;html=1;arcSize=40;fontColor=#000000;fillColor=#ffffc0;strokeColor=#ff0000;" parent="HbQ1YfReIVzo1ypkKAUV-113" vertex="1">
          <mxGeometry x="70" y="490" width="120" height="40" as="geometry" />
        </mxCell>
        <mxCell id="HbQ1YfReIVzo1ypkKAUV-125" value="" style="edgeStyle=orthogonalEdgeStyle;html=1;verticalAlign=bottom;endArrow=open;endSize=8;strokeColor=#ff0000;rounded=0;entryX=0;entryY=0.5;entryDx=0;entryDy=0;" parent="HbQ1YfReIVzo1ypkKAUV-112" source="HbQ1YfReIVzo1ypkKAUV-116" target="HbQ1YfReIVzo1ypkKAUV-128" edge="1">
          <mxGeometry relative="1" as="geometry">
            <mxPoint x="125" y="260" as="targetPoint" />
          </mxGeometry>
        </mxCell>
        <mxCell id="HbQ1YfReIVzo1ypkKAUV-126" style="edgeStyle=orthogonalEdgeStyle;rounded=0;orthogonalLoop=1;jettySize=auto;html=1;endArrow=open;endFill=0;strokeColor=#FF3333;" parent="HbQ1YfReIVzo1ypkKAUV-112" source="HbQ1YfReIVzo1ypkKAUV-128" target="HbQ1YfReIVzo1ypkKAUV-118" edge="1">
          <mxGeometry relative="1" as="geometry">
            <Array as="points">
              <mxPoint x="375" y="230" />
              <mxPoint x="125" y="230" />
            </Array>
            <mxPoint x="125" y="250" as="targetPoint" />
          </mxGeometry>
        </mxCell>
        <mxCell id="HbQ1YfReIVzo1ypkKAUV-127" value="System" style="swimlane;html=1;startSize=20;" parent="HbQ1YfReIVzo1ypkKAUV-112" vertex="1">
          <mxGeometry x="250" y="20" width="260" height="680" as="geometry" />
        </mxCell>
        <mxCell id="HbQ1YfReIVzo1ypkKAUV-128" value="Form Login" style="rounded=1;whiteSpace=wrap;html=1;arcSize=40;fontColor=#000000;fillColor=#ffffc0;strokeColor=#ff0000;" parent="HbQ1YfReIVzo1ypkKAUV-127" vertex="1">
          <mxGeometry x="65" y="140" width="120" height="40" as="geometry" />
        </mxCell>
        <mxCell id="HbQ1YfReIVzo1ypkKAUV-129" value="Tampil Halaman Utama" style="rounded=1;whiteSpace=wrap;html=1;arcSize=40;fontColor=#000000;fillColor=#ffffc0;strokeColor=#ff0000;" parent="HbQ1YfReIVzo1ypkKAUV-127" vertex="1">
          <mxGeometry x="65" y="230" width="120" height="40" as="geometry" />
        </mxCell>
        <mxCell id="HbQ1YfReIVzo1ypkKAUV-130" value="Form Informasi Akun" style="rounded=1;whiteSpace=wrap;html=1;arcSize=40;fontColor=#000000;fillColor=#ffffc0;strokeColor=#ff0000;" parent="HbQ1YfReIVzo1ypkKAUV-127" vertex="1">
          <mxGeometry x="65" y="360" width="120" height="40" as="geometry" />
        </mxCell>
        <mxCell id="HbQ1YfReIVzo1ypkKAUV-131" value="&lt;i&gt;Update Informasi Akun&lt;/i&gt;" style="rounded=1;whiteSpace=wrap;html=1;arcSize=40;fontColor=#000000;fillColor=#ffffc0;strokeColor=#ff0000;" parent="HbQ1YfReIVzo1ypkKAUV-127" vertex="1">
          <mxGeometry x="70" y="490" width="120" height="40" as="geometry" />
        </mxCell>
        <mxCell id="HbQ1YfReIVzo1ypkKAUV-132" value="" style="edgeStyle=orthogonalEdgeStyle;html=1;verticalAlign=bottom;endArrow=open;endSize=8;strokeColor=#ff0000;rounded=0;entryX=0.5;entryY=0;entryDx=0;entryDy=0;" parent="HbQ1YfReIVzo1ypkKAUV-127" source="HbQ1YfReIVzo1ypkKAUV-131" target="HbQ1YfReIVzo1ypkKAUV-133" edge="1">
          <mxGeometry relative="1" as="geometry">
            <mxPoint x="130" y="590" as="targetPoint" />
          </mxGeometry>
        </mxCell>
        <mxCell id="HbQ1YfReIVzo1ypkKAUV-133" value="" style="ellipse;html=1;shape=endState;fillColor=#000000;strokeColor=#ff0000;" parent="HbQ1YfReIVzo1ypkKAUV-127" vertex="1">
          <mxGeometry x="115" y="600" width="30" height="30" as="geometry" />
        </mxCell>
        <mxCell id="HbQ1YfReIVzo1ypkKAUV-134" value="" style="edgeStyle=orthogonalEdgeStyle;html=1;verticalAlign=bottom;endArrow=open;endSize=8;strokeColor=#ff0000;rounded=0;entryX=0;entryY=0.5;entryDx=0;entryDy=0;" parent="HbQ1YfReIVzo1ypkKAUV-112" source="HbQ1YfReIVzo1ypkKAUV-118" target="HbQ1YfReIVzo1ypkKAUV-129" edge="1">
          <mxGeometry relative="1" as="geometry">
            <mxPoint x="125" y="350" as="targetPoint" />
          </mxGeometry>
        </mxCell>
        <mxCell id="HbQ1YfReIVzo1ypkKAUV-135" value="" style="edgeStyle=orthogonalEdgeStyle;html=1;verticalAlign=bottom;endArrow=open;endSize=8;strokeColor=#ff0000;rounded=0;entryX=1;entryY=0.5;entryDx=0;entryDy=0;" parent="HbQ1YfReIVzo1ypkKAUV-112" source="HbQ1YfReIVzo1ypkKAUV-129" target="HbQ1YfReIVzo1ypkKAUV-119" edge="1">
          <mxGeometry relative="1" as="geometry">
            <mxPoint x="380" y="360" as="targetPoint" />
            <Array as="points">
              <mxPoint x="375" y="330" />
            </Array>
          </mxGeometry>
        </mxCell>
        <mxCell id="HbQ1YfReIVzo1ypkKAUV-136" value="" style="edgeStyle=orthogonalEdgeStyle;html=1;verticalAlign=bottom;endArrow=open;endSize=8;strokeColor=#ff0000;rounded=0;entryX=0;entryY=0.5;entryDx=0;entryDy=0;" parent="HbQ1YfReIVzo1ypkKAUV-112" source="HbQ1YfReIVzo1ypkKAUV-121" target="HbQ1YfReIVzo1ypkKAUV-130" edge="1">
          <mxGeometry relative="1" as="geometry">
            <mxPoint x="130" y="510" as="targetPoint" />
          </mxGeometry>
        </mxCell>
        <mxCell id="HbQ1YfReIVzo1ypkKAUV-137" value="" style="edgeStyle=orthogonalEdgeStyle;html=1;verticalAlign=bottom;endArrow=open;endSize=8;strokeColor=#ff0000;rounded=0;entryX=1;entryY=0.5;entryDx=0;entryDy=0;" parent="HbQ1YfReIVzo1ypkKAUV-112" source="HbQ1YfReIVzo1ypkKAUV-130" target="HbQ1YfReIVzo1ypkKAUV-122" edge="1">
          <mxGeometry relative="1" as="geometry">
            <mxPoint x="375" y="460" as="targetPoint" />
            <Array as="points">
              <mxPoint x="375" y="460" />
            </Array>
          </mxGeometry>
        </mxCell>
        <mxCell id="HbQ1YfReIVzo1ypkKAUV-138" value="" style="edgeStyle=orthogonalEdgeStyle;html=1;verticalAlign=bottom;endArrow=open;endSize=8;strokeColor=#ff0000;rounded=0;entryX=0;entryY=0.5;entryDx=0;entryDy=0;" parent="HbQ1YfReIVzo1ypkKAUV-112" source="HbQ1YfReIVzo1ypkKAUV-124" target="HbQ1YfReIVzo1ypkKAUV-131" edge="1">
          <mxGeometry relative="1" as="geometry">
            <mxPoint x="130" y="660" as="targetPoint" />
          </mxGeometry>
        </mxCell>
        <mxCell id="HbQ1YfReIVzo1ypkKAUV-142" value="KendaraanBekas" style="swimlane;html=1;childLayout=stackLayout;startSize=20;rounded=0;shadow=0;comic=0;labelBackgroundColor=none;strokeWidth=1;fontFamily=Verdana;fontSize=12;align=center;" parent="1" vertex="1">
          <mxGeometry x="2160" y="20" width="510" height="700" as="geometry" />
        </mxCell>
        <mxCell id="HbQ1YfReIVzo1ypkKAUV-143" value="User" style="swimlane;html=1;startSize=20;" parent="HbQ1YfReIVzo1ypkKAUV-142" vertex="1">
          <mxGeometry y="20" width="250" height="680" as="geometry" />
        </mxCell>
        <mxCell id="HbQ1YfReIVzo1ypkKAUV-144" value="" style="ellipse;html=1;shape=startState;fillColor=#000000;strokeColor=#ff0000;" parent="HbQ1YfReIVzo1ypkKAUV-143" vertex="1">
          <mxGeometry x="110" y="40" width="30" height="30" as="geometry" />
        </mxCell>
        <mxCell id="HbQ1YfReIVzo1ypkKAUV-145" value="" style="edgeStyle=orthogonalEdgeStyle;html=1;verticalAlign=bottom;endArrow=open;endSize=8;strokeColor=#ff0000;rounded=0;entryX=0.5;entryY=0;entryDx=0;entryDy=0;" parent="HbQ1YfReIVzo1ypkKAUV-143" source="HbQ1YfReIVzo1ypkKAUV-144" target="HbQ1YfReIVzo1ypkKAUV-146" edge="1">
          <mxGeometry relative="1" as="geometry">
            <mxPoint x="125" y="130" as="targetPoint" />
          </mxGeometry>
        </mxCell>
        <mxCell id="HbQ1YfReIVzo1ypkKAUV-146" value="Akses Aplikasi KendaraanBekas" style="rounded=1;whiteSpace=wrap;html=1;arcSize=40;fontColor=#000000;fillColor=#ffffc0;strokeColor=#ff0000;" parent="HbQ1YfReIVzo1ypkKAUV-143" vertex="1">
          <mxGeometry x="65" y="140" width="120" height="40" as="geometry" />
        </mxCell>
        <mxCell id="HbQ1YfReIVzo1ypkKAUV-147" value="Transaksi Anda" style="text;html=1;strokeColor=none;fillColor=none;align=center;verticalAlign=middle;whiteSpace=wrap;rounded=0;" parent="HbQ1YfReIVzo1ypkKAUV-143" vertex="1">
          <mxGeometry y="650" width="100" height="30" as="geometry" />
        </mxCell>
        <mxCell id="HbQ1YfReIVzo1ypkKAUV-148" value="Login" style="rounded=1;whiteSpace=wrap;html=1;arcSize=40;fontColor=#000000;fillColor=#ffffc0;strokeColor=#ff0000;" parent="HbQ1YfReIVzo1ypkKAUV-143" vertex="1">
          <mxGeometry x="65" y="230" width="120" height="40" as="geometry" />
        </mxCell>
        <mxCell id="HbQ1YfReIVzo1ypkKAUV-149" value="Klik My Profile" style="rounded=1;whiteSpace=wrap;html=1;arcSize=40;fontColor=#000000;fillColor=#ffffc0;strokeColor=#ff0000;" parent="HbQ1YfReIVzo1ypkKAUV-143" vertex="1">
          <mxGeometry x="70" y="290" width="120" height="40" as="geometry" />
        </mxCell>
        <mxCell id="HbQ1YfReIVzo1ypkKAUV-150" value="" style="edgeStyle=orthogonalEdgeStyle;html=1;verticalAlign=bottom;endArrow=open;endSize=8;strokeColor=#ff0000;rounded=0;" parent="HbQ1YfReIVzo1ypkKAUV-143" source="HbQ1YfReIVzo1ypkKAUV-149" target="HbQ1YfReIVzo1ypkKAUV-151" edge="1">
          <mxGeometry relative="1" as="geometry">
            <mxPoint x="130" y="390" as="targetPoint" />
          </mxGeometry>
        </mxCell>
        <mxCell id="HbQ1YfReIVzo1ypkKAUV-151" value="Klik Transaksi Anda" style="rounded=1;whiteSpace=wrap;html=1;arcSize=40;fontColor=#000000;fillColor=#ffffc0;strokeColor=#ff0000;" parent="HbQ1YfReIVzo1ypkKAUV-143" vertex="1">
          <mxGeometry x="70" y="360" width="120" height="40" as="geometry" />
        </mxCell>
        <mxCell id="HbQ1YfReIVzo1ypkKAUV-155" value="" style="edgeStyle=orthogonalEdgeStyle;html=1;verticalAlign=bottom;endArrow=open;endSize=8;strokeColor=#ff0000;rounded=0;entryX=0;entryY=0.5;entryDx=0;entryDy=0;" parent="HbQ1YfReIVzo1ypkKAUV-142" source="HbQ1YfReIVzo1ypkKAUV-146" target="HbQ1YfReIVzo1ypkKAUV-158" edge="1">
          <mxGeometry relative="1" as="geometry">
            <mxPoint x="125" y="260" as="targetPoint" />
          </mxGeometry>
        </mxCell>
        <mxCell id="HbQ1YfReIVzo1ypkKAUV-156" style="edgeStyle=orthogonalEdgeStyle;rounded=0;orthogonalLoop=1;jettySize=auto;html=1;endArrow=open;endFill=0;strokeColor=#FF3333;" parent="HbQ1YfReIVzo1ypkKAUV-142" source="HbQ1YfReIVzo1ypkKAUV-158" target="HbQ1YfReIVzo1ypkKAUV-148" edge="1">
          <mxGeometry relative="1" as="geometry">
            <Array as="points">
              <mxPoint x="375" y="230" />
              <mxPoint x="125" y="230" />
            </Array>
            <mxPoint x="125" y="250" as="targetPoint" />
          </mxGeometry>
        </mxCell>
        <mxCell id="HbQ1YfReIVzo1ypkKAUV-157" value="System" style="swimlane;html=1;startSize=20;" parent="HbQ1YfReIVzo1ypkKAUV-142" vertex="1">
          <mxGeometry x="250" y="20" width="260" height="680" as="geometry" />
        </mxCell>
        <mxCell id="HbQ1YfReIVzo1ypkKAUV-158" value="Form Login" style="rounded=1;whiteSpace=wrap;html=1;arcSize=40;fontColor=#000000;fillColor=#ffffc0;strokeColor=#ff0000;" parent="HbQ1YfReIVzo1ypkKAUV-157" vertex="1">
          <mxGeometry x="65" y="140" width="120" height="40" as="geometry" />
        </mxCell>
        <mxCell id="HbQ1YfReIVzo1ypkKAUV-159" value="Tampil Halaman Utama" style="rounded=1;whiteSpace=wrap;html=1;arcSize=40;fontColor=#000000;fillColor=#ffffc0;strokeColor=#ff0000;" parent="HbQ1YfReIVzo1ypkKAUV-157" vertex="1">
          <mxGeometry x="65" y="230" width="120" height="40" as="geometry" />
        </mxCell>
        <mxCell id="HbQ1YfReIVzo1ypkKAUV-160" value="List Transaksi Yang Sedang Berlangsung" style="rounded=1;whiteSpace=wrap;html=1;arcSize=40;fontColor=#000000;fillColor=#ffffc0;strokeColor=#ff0000;" parent="HbQ1YfReIVzo1ypkKAUV-157" vertex="1">
          <mxGeometry x="65" y="360" width="120" height="40" as="geometry" />
        </mxCell>
        <mxCell id="HbQ1YfReIVzo1ypkKAUV-163" value="" style="ellipse;html=1;shape=endState;fillColor=#000000;strokeColor=#ff0000;" parent="HbQ1YfReIVzo1ypkKAUV-157" vertex="1">
          <mxGeometry x="110" y="450" width="30" height="30" as="geometry" />
        </mxCell>
        <mxCell id="HbQ1YfReIVzo1ypkKAUV-167" value="" style="edgeStyle=orthogonalEdgeStyle;html=1;verticalAlign=bottom;endArrow=open;endSize=8;strokeColor=#ff0000;rounded=0;entryX=0.5;entryY=0;entryDx=0;entryDy=0;" parent="HbQ1YfReIVzo1ypkKAUV-157" source="HbQ1YfReIVzo1ypkKAUV-160" target="HbQ1YfReIVzo1ypkKAUV-163" edge="1">
          <mxGeometry relative="1" as="geometry">
            <mxPoint x="125" y="470" as="targetPoint" />
            <Array as="points" />
          </mxGeometry>
        </mxCell>
        <mxCell id="HbQ1YfReIVzo1ypkKAUV-164" value="" style="edgeStyle=orthogonalEdgeStyle;html=1;verticalAlign=bottom;endArrow=open;endSize=8;strokeColor=#ff0000;rounded=0;entryX=0;entryY=0.5;entryDx=0;entryDy=0;" parent="HbQ1YfReIVzo1ypkKAUV-142" source="HbQ1YfReIVzo1ypkKAUV-148" target="HbQ1YfReIVzo1ypkKAUV-159" edge="1">
          <mxGeometry relative="1" as="geometry">
            <mxPoint x="125" y="350" as="targetPoint" />
          </mxGeometry>
        </mxCell>
        <mxCell id="HbQ1YfReIVzo1ypkKAUV-165" value="" style="edgeStyle=orthogonalEdgeStyle;html=1;verticalAlign=bottom;endArrow=open;endSize=8;strokeColor=#ff0000;rounded=0;entryX=1;entryY=0.5;entryDx=0;entryDy=0;" parent="HbQ1YfReIVzo1ypkKAUV-142" source="HbQ1YfReIVzo1ypkKAUV-159" target="HbQ1YfReIVzo1ypkKAUV-149" edge="1">
          <mxGeometry relative="1" as="geometry">
            <mxPoint x="380" y="360" as="targetPoint" />
            <Array as="points">
              <mxPoint x="375" y="330" />
            </Array>
          </mxGeometry>
        </mxCell>
        <mxCell id="HbQ1YfReIVzo1ypkKAUV-166" value="" style="edgeStyle=orthogonalEdgeStyle;html=1;verticalAlign=bottom;endArrow=open;endSize=8;strokeColor=#ff0000;rounded=0;entryX=0;entryY=0.5;entryDx=0;entryDy=0;" parent="HbQ1YfReIVzo1ypkKAUV-142" source="HbQ1YfReIVzo1ypkKAUV-151" target="HbQ1YfReIVzo1ypkKAUV-160" edge="1">
          <mxGeometry relative="1" as="geometry">
            <mxPoint x="130" y="510" as="targetPoint" />
          </mxGeometry>
        </mxCell>
        <mxCell id="HbQ1YfReIVzo1ypkKAUV-170" value="KendaraanBekas" style="swimlane;html=1;childLayout=stackLayout;startSize=20;rounded=0;shadow=0;comic=0;labelBackgroundColor=none;strokeWidth=1;fontFamily=Verdana;fontSize=12;align=center;" parent="1" vertex="1">
          <mxGeometry x="2690" y="20" width="510" height="700" as="geometry" />
        </mxCell>
        <mxCell id="HbQ1YfReIVzo1ypkKAUV-171" value="User" style="swimlane;html=1;startSize=20;" parent="HbQ1YfReIVzo1ypkKAUV-170" vertex="1">
          <mxGeometry y="20" width="250" height="680" as="geometry" />
        </mxCell>
        <mxCell id="HbQ1YfReIVzo1ypkKAUV-172" value="" style="ellipse;html=1;shape=startState;fillColor=#000000;strokeColor=#ff0000;" parent="HbQ1YfReIVzo1ypkKAUV-171" vertex="1">
          <mxGeometry x="110" y="40" width="30" height="30" as="geometry" />
        </mxCell>
        <mxCell id="HbQ1YfReIVzo1ypkKAUV-173" value="" style="edgeStyle=orthogonalEdgeStyle;html=1;verticalAlign=bottom;endArrow=open;endSize=8;strokeColor=#ff0000;rounded=0;entryX=0.5;entryY=0;entryDx=0;entryDy=0;" parent="HbQ1YfReIVzo1ypkKAUV-171" source="HbQ1YfReIVzo1ypkKAUV-172" target="HbQ1YfReIVzo1ypkKAUV-174" edge="1">
          <mxGeometry relative="1" as="geometry">
            <mxPoint x="125" y="130" as="targetPoint" />
          </mxGeometry>
        </mxCell>
        <mxCell id="HbQ1YfReIVzo1ypkKAUV-174" value="Akses Aplikasi KendaraanBekas" style="rounded=1;whiteSpace=wrap;html=1;arcSize=40;fontColor=#000000;fillColor=#ffffc0;strokeColor=#ff0000;" parent="HbQ1YfReIVzo1ypkKAUV-171" vertex="1">
          <mxGeometry x="65" y="140" width="120" height="40" as="geometry" />
        </mxCell>
        <mxCell id="HbQ1YfReIVzo1ypkKAUV-175" value="Wishlist" style="text;html=1;strokeColor=none;fillColor=none;align=center;verticalAlign=middle;whiteSpace=wrap;rounded=0;" parent="HbQ1YfReIVzo1ypkKAUV-171" vertex="1">
          <mxGeometry y="650" width="70" height="30" as="geometry" />
        </mxCell>
        <mxCell id="HbQ1YfReIVzo1ypkKAUV-176" value="Login" style="rounded=1;whiteSpace=wrap;html=1;arcSize=40;fontColor=#000000;fillColor=#ffffc0;strokeColor=#ff0000;" parent="HbQ1YfReIVzo1ypkKAUV-171" vertex="1">
          <mxGeometry x="65" y="230" width="120" height="40" as="geometry" />
        </mxCell>
        <mxCell id="HbQ1YfReIVzo1ypkKAUV-177" value="Klik My Profile" style="rounded=1;whiteSpace=wrap;html=1;arcSize=40;fontColor=#000000;fillColor=#ffffc0;strokeColor=#ff0000;" parent="HbQ1YfReIVzo1ypkKAUV-171" vertex="1">
          <mxGeometry x="70" y="290" width="120" height="40" as="geometry" />
        </mxCell>
        <mxCell id="HbQ1YfReIVzo1ypkKAUV-178" value="" style="edgeStyle=orthogonalEdgeStyle;html=1;verticalAlign=bottom;endArrow=open;endSize=8;strokeColor=#ff0000;rounded=0;" parent="HbQ1YfReIVzo1ypkKAUV-171" source="HbQ1YfReIVzo1ypkKAUV-177" target="HbQ1YfReIVzo1ypkKAUV-179" edge="1">
          <mxGeometry relative="1" as="geometry">
            <mxPoint x="130" y="390" as="targetPoint" />
          </mxGeometry>
        </mxCell>
        <mxCell id="HbQ1YfReIVzo1ypkKAUV-179" value="Klik Wishlist" style="rounded=1;whiteSpace=wrap;html=1;arcSize=40;fontColor=#000000;fillColor=#ffffc0;strokeColor=#ff0000;" parent="HbQ1YfReIVzo1ypkKAUV-171" vertex="1">
          <mxGeometry x="70" y="360" width="120" height="40" as="geometry" />
        </mxCell>
        <mxCell id="HbQ1YfReIVzo1ypkKAUV-180" value="" style="edgeStyle=orthogonalEdgeStyle;html=1;verticalAlign=bottom;endArrow=open;endSize=8;strokeColor=#ff0000;rounded=0;entryX=0;entryY=0.5;entryDx=0;entryDy=0;" parent="HbQ1YfReIVzo1ypkKAUV-170" source="HbQ1YfReIVzo1ypkKAUV-174" target="HbQ1YfReIVzo1ypkKAUV-183" edge="1">
          <mxGeometry relative="1" as="geometry">
            <mxPoint x="125" y="260" as="targetPoint" />
          </mxGeometry>
        </mxCell>
        <mxCell id="HbQ1YfReIVzo1ypkKAUV-181" style="edgeStyle=orthogonalEdgeStyle;rounded=0;orthogonalLoop=1;jettySize=auto;html=1;endArrow=open;endFill=0;strokeColor=#FF3333;" parent="HbQ1YfReIVzo1ypkKAUV-170" source="HbQ1YfReIVzo1ypkKAUV-183" target="HbQ1YfReIVzo1ypkKAUV-176" edge="1">
          <mxGeometry relative="1" as="geometry">
            <Array as="points">
              <mxPoint x="375" y="230" />
              <mxPoint x="125" y="230" />
            </Array>
            <mxPoint x="125" y="250" as="targetPoint" />
          </mxGeometry>
        </mxCell>
        <mxCell id="HbQ1YfReIVzo1ypkKAUV-182" value="System" style="swimlane;html=1;startSize=20;" parent="HbQ1YfReIVzo1ypkKAUV-170" vertex="1">
          <mxGeometry x="250" y="20" width="260" height="680" as="geometry" />
        </mxCell>
        <mxCell id="HbQ1YfReIVzo1ypkKAUV-183" value="Form Login" style="rounded=1;whiteSpace=wrap;html=1;arcSize=40;fontColor=#000000;fillColor=#ffffc0;strokeColor=#ff0000;" parent="HbQ1YfReIVzo1ypkKAUV-182" vertex="1">
          <mxGeometry x="65" y="140" width="120" height="40" as="geometry" />
        </mxCell>
        <mxCell id="HbQ1YfReIVzo1ypkKAUV-184" value="Tampil Halaman Utama" style="rounded=1;whiteSpace=wrap;html=1;arcSize=40;fontColor=#000000;fillColor=#ffffc0;strokeColor=#ff0000;" parent="HbQ1YfReIVzo1ypkKAUV-182" vertex="1">
          <mxGeometry x="65" y="230" width="120" height="40" as="geometry" />
        </mxCell>
        <mxCell id="HbQ1YfReIVzo1ypkKAUV-185" value="List Wishlist Kendaraan" style="rounded=1;whiteSpace=wrap;html=1;arcSize=40;fontColor=#000000;fillColor=#ffffc0;strokeColor=#ff0000;" parent="HbQ1YfReIVzo1ypkKAUV-182" vertex="1">
          <mxGeometry x="65" y="360" width="120" height="40" as="geometry" />
        </mxCell>
        <mxCell id="HbQ1YfReIVzo1ypkKAUV-186" value="" style="ellipse;html=1;shape=endState;fillColor=#000000;strokeColor=#ff0000;" parent="HbQ1YfReIVzo1ypkKAUV-182" vertex="1">
          <mxGeometry x="110" y="450" width="30" height="30" as="geometry" />
        </mxCell>
        <mxCell id="HbQ1YfReIVzo1ypkKAUV-187" value="" style="edgeStyle=orthogonalEdgeStyle;html=1;verticalAlign=bottom;endArrow=open;endSize=8;strokeColor=#ff0000;rounded=0;entryX=0.5;entryY=0;entryDx=0;entryDy=0;" parent="HbQ1YfReIVzo1ypkKAUV-182" source="HbQ1YfReIVzo1ypkKAUV-185" target="HbQ1YfReIVzo1ypkKAUV-186" edge="1">
          <mxGeometry relative="1" as="geometry">
            <mxPoint x="125" y="470" as="targetPoint" />
            <Array as="points" />
          </mxGeometry>
        </mxCell>
        <mxCell id="HbQ1YfReIVzo1ypkKAUV-188" value="" style="edgeStyle=orthogonalEdgeStyle;html=1;verticalAlign=bottom;endArrow=open;endSize=8;strokeColor=#ff0000;rounded=0;entryX=0;entryY=0.5;entryDx=0;entryDy=0;" parent="HbQ1YfReIVzo1ypkKAUV-170" source="HbQ1YfReIVzo1ypkKAUV-176" target="HbQ1YfReIVzo1ypkKAUV-184" edge="1">
          <mxGeometry relative="1" as="geometry">
            <mxPoint x="125" y="350" as="targetPoint" />
          </mxGeometry>
        </mxCell>
        <mxCell id="HbQ1YfReIVzo1ypkKAUV-189" value="" style="edgeStyle=orthogonalEdgeStyle;html=1;verticalAlign=bottom;endArrow=open;endSize=8;strokeColor=#ff0000;rounded=0;entryX=1;entryY=0.5;entryDx=0;entryDy=0;" parent="HbQ1YfReIVzo1ypkKAUV-170" source="HbQ1YfReIVzo1ypkKAUV-184" target="HbQ1YfReIVzo1ypkKAUV-177" edge="1">
          <mxGeometry relative="1" as="geometry">
            <mxPoint x="380" y="360" as="targetPoint" />
            <Array as="points">
              <mxPoint x="375" y="330" />
            </Array>
          </mxGeometry>
        </mxCell>
        <mxCell id="HbQ1YfReIVzo1ypkKAUV-190" value="" style="edgeStyle=orthogonalEdgeStyle;html=1;verticalAlign=bottom;endArrow=open;endSize=8;strokeColor=#ff0000;rounded=0;entryX=0;entryY=0.5;entryDx=0;entryDy=0;" parent="HbQ1YfReIVzo1ypkKAUV-170" source="HbQ1YfReIVzo1ypkKAUV-179" target="HbQ1YfReIVzo1ypkKAUV-185" edge="1">
          <mxGeometry relative="1" as="geometry">
            <mxPoint x="130" y="510" as="targetPoint" />
          </mxGeometry>
        </mxCell>
        <mxCell id="HbQ1YfReIVzo1ypkKAUV-191" value="KendaraanBekas" style="swimlane;html=1;childLayout=stackLayout;startSize=20;rounded=0;shadow=0;comic=0;labelBackgroundColor=none;strokeWidth=1;fontFamily=Verdana;fontSize=12;align=center;" parent="1" vertex="1">
          <mxGeometry x="3220" y="20" width="510" height="700" as="geometry" />
        </mxCell>
        <mxCell id="HbQ1YfReIVzo1ypkKAUV-192" value="User" style="swimlane;html=1;startSize=20;" parent="HbQ1YfReIVzo1ypkKAUV-191" vertex="1">
          <mxGeometry y="20" width="250" height="680" as="geometry" />
        </mxCell>
        <mxCell id="HbQ1YfReIVzo1ypkKAUV-193" value="" style="ellipse;html=1;shape=startState;fillColor=#000000;strokeColor=#ff0000;" parent="HbQ1YfReIVzo1ypkKAUV-192" vertex="1">
          <mxGeometry x="110" y="40" width="30" height="30" as="geometry" />
        </mxCell>
        <mxCell id="HbQ1YfReIVzo1ypkKAUV-194" value="" style="edgeStyle=orthogonalEdgeStyle;html=1;verticalAlign=bottom;endArrow=open;endSize=8;strokeColor=#ff0000;rounded=0;entryX=0.5;entryY=0;entryDx=0;entryDy=0;" parent="HbQ1YfReIVzo1ypkKAUV-192" source="HbQ1YfReIVzo1ypkKAUV-193" target="HbQ1YfReIVzo1ypkKAUV-195" edge="1">
          <mxGeometry relative="1" as="geometry">
            <mxPoint x="125" y="130" as="targetPoint" />
          </mxGeometry>
        </mxCell>
        <mxCell id="HbQ1YfReIVzo1ypkKAUV-195" value="Klik My Profile" style="rounded=1;whiteSpace=wrap;html=1;arcSize=40;fontColor=#000000;fillColor=#ffffc0;strokeColor=#ff0000;" parent="HbQ1YfReIVzo1ypkKAUV-192" vertex="1">
          <mxGeometry x="65" y="140" width="120" height="40" as="geometry" />
        </mxCell>
        <mxCell id="HbQ1YfReIVzo1ypkKAUV-196" value="Logout" style="text;html=1;strokeColor=none;fillColor=none;align=center;verticalAlign=middle;whiteSpace=wrap;rounded=0;" parent="HbQ1YfReIVzo1ypkKAUV-192" vertex="1">
          <mxGeometry y="650" width="70" height="30" as="geometry" />
        </mxCell>
        <mxCell id="HbQ1YfReIVzo1ypkKAUV-197" value="Klik Logout" style="rounded=1;whiteSpace=wrap;html=1;arcSize=40;fontColor=#000000;fillColor=#ffffc0;strokeColor=#ff0000;" parent="HbQ1YfReIVzo1ypkKAUV-192" vertex="1">
          <mxGeometry x="65" y="230" width="120" height="40" as="geometry" />
        </mxCell>
        <mxCell id="HbQ1YfReIVzo1ypkKAUV-201" value="" style="edgeStyle=orthogonalEdgeStyle;html=1;verticalAlign=bottom;endArrow=open;endSize=8;strokeColor=#ff0000;rounded=0;entryX=0.5;entryY=0;entryDx=0;entryDy=0;" parent="HbQ1YfReIVzo1ypkKAUV-192" source="HbQ1YfReIVzo1ypkKAUV-195" target="HbQ1YfReIVzo1ypkKAUV-197" edge="1">
          <mxGeometry relative="1" as="geometry">
            <mxPoint x="315" y="160" as="targetPoint" />
          </mxGeometry>
        </mxCell>
        <mxCell id="HbQ1YfReIVzo1ypkKAUV-209" value="" style="edgeStyle=orthogonalEdgeStyle;html=1;verticalAlign=bottom;endArrow=open;endSize=8;strokeColor=#ff0000;rounded=0;entryX=0;entryY=0.5;entryDx=0;entryDy=0;" parent="HbQ1YfReIVzo1ypkKAUV-191" source="HbQ1YfReIVzo1ypkKAUV-197" target="HbQ1YfReIVzo1ypkKAUV-205" edge="1">
          <mxGeometry relative="1" as="geometry">
            <mxPoint x="125" y="350" as="targetPoint" />
          </mxGeometry>
        </mxCell>
        <mxCell id="HbQ1YfReIVzo1ypkKAUV-203" value="System" style="swimlane;html=1;startSize=20;" parent="HbQ1YfReIVzo1ypkKAUV-191" vertex="1">
          <mxGeometry x="250" y="20" width="260" height="680" as="geometry" />
        </mxCell>
        <mxCell id="HbQ1YfReIVzo1ypkKAUV-205" value="Memproses Logout" style="rounded=1;whiteSpace=wrap;html=1;arcSize=40;fontColor=#000000;fillColor=#ffffc0;strokeColor=#ff0000;" parent="HbQ1YfReIVzo1ypkKAUV-203" vertex="1">
          <mxGeometry x="65" y="230" width="120" height="40" as="geometry" />
        </mxCell>
        <mxCell id="HbQ1YfReIVzo1ypkKAUV-207" value="" style="ellipse;html=1;shape=endState;fillColor=#000000;strokeColor=#ff0000;" parent="HbQ1YfReIVzo1ypkKAUV-203" vertex="1">
          <mxGeometry x="115" y="450" width="30" height="30" as="geometry" />
        </mxCell>
        <mxCell id="HbQ1YfReIVzo1ypkKAUV-208" value="" style="edgeStyle=orthogonalEdgeStyle;html=1;verticalAlign=bottom;endArrow=open;endSize=8;strokeColor=#ff0000;rounded=0;entryX=0.5;entryY=0;entryDx=0;entryDy=0;" parent="HbQ1YfReIVzo1ypkKAUV-203" target="HbQ1YfReIVzo1ypkKAUV-207" edge="1">
          <mxGeometry relative="1" as="geometry">
            <mxPoint x="125" y="470" as="targetPoint" />
            <Array as="points" />
            <mxPoint x="124.96551724137953" y="449.9999999999999" as="sourcePoint" />
          </mxGeometry>
        </mxCell>
        <mxCell id="HbQ1YfReIVzo1ypkKAUV-198" value="Tampil Form Login" style="rounded=1;whiteSpace=wrap;html=1;arcSize=40;fontColor=#000000;fillColor=#ffffc0;strokeColor=#ff0000;" parent="HbQ1YfReIVzo1ypkKAUV-203" vertex="1">
          <mxGeometry x="70" y="330" width="120" height="40" as="geometry" />
        </mxCell>
        <mxCell id="HbQ1YfReIVzo1ypkKAUV-210" value="" style="edgeStyle=orthogonalEdgeStyle;html=1;verticalAlign=bottom;endArrow=open;endSize=8;strokeColor=#ff0000;rounded=0;" parent="HbQ1YfReIVzo1ypkKAUV-203" source="HbQ1YfReIVzo1ypkKAUV-205" edge="1">
          <mxGeometry relative="1" as="geometry">
            <mxPoint x="125" y="330" as="targetPoint" />
            <Array as="points">
              <mxPoint x="125" y="330" />
            </Array>
          </mxGeometry>
        </mxCell>
        <mxCell id="HbQ1YfReIVzo1ypkKAUV-199" value="" style="edgeStyle=orthogonalEdgeStyle;html=1;verticalAlign=bottom;endArrow=open;endSize=8;strokeColor=#ff0000;rounded=0;entryX=0.5;entryY=0;entryDx=0;entryDy=0;" parent="HbQ1YfReIVzo1ypkKAUV-203" source="HbQ1YfReIVzo1ypkKAUV-198" target="HbQ1YfReIVzo1ypkKAUV-207" edge="1">
          <mxGeometry relative="1" as="geometry">
            <mxPoint x="-60" y="379.9655172413793" as="targetPoint" />
          </mxGeometry>
        </mxCell>
        <mxCell id="CUxJD5j-P1nPdLDIXRBb-1" value="KendaraanBekas" style="swimlane;html=1;childLayout=stackLayout;startSize=20;rounded=0;shadow=0;comic=0;labelBackgroundColor=none;strokeWidth=1;fontFamily=Verdana;fontSize=12;align=center;" vertex="1" parent="1">
          <mxGeometry x="40" y="740" width="510" height="960" as="geometry" />
        </mxCell>
        <mxCell id="CUxJD5j-P1nPdLDIXRBb-2" value="User" style="swimlane;html=1;startSize=20;" vertex="1" parent="CUxJD5j-P1nPdLDIXRBb-1">
          <mxGeometry y="20" width="250" height="940" as="geometry" />
        </mxCell>
        <mxCell id="CUxJD5j-P1nPdLDIXRBb-7" value="Simulasi Kredit" style="text;html=1;strokeColor=none;fillColor=none;align=center;verticalAlign=middle;whiteSpace=wrap;rounded=0;" vertex="1" parent="CUxJD5j-P1nPdLDIXRBb-2">
          <mxGeometry y="910" width="60" height="30" as="geometry" />
        </mxCell>
        <mxCell id="CUxJD5j-P1nPdLDIXRBb-19" value="" style="ellipse;html=1;shape=startState;fillColor=#000000;strokeColor=#ff0000;" vertex="1" parent="CUxJD5j-P1nPdLDIXRBb-2">
          <mxGeometry x="110" y="40" width="30" height="30" as="geometry" />
        </mxCell>
        <mxCell id="CUxJD5j-P1nPdLDIXRBb-20" value="" style="edgeStyle=orthogonalEdgeStyle;html=1;verticalAlign=bottom;endArrow=open;endSize=8;strokeColor=#ff0000;rounded=0;entryX=0.5;entryY=0;entryDx=0;entryDy=0;" edge="1" source="CUxJD5j-P1nPdLDIXRBb-19" parent="CUxJD5j-P1nPdLDIXRBb-2" target="CUxJD5j-P1nPdLDIXRBb-21">
          <mxGeometry relative="1" as="geometry">
            <mxPoint x="125" y="130" as="targetPoint" />
          </mxGeometry>
        </mxCell>
        <mxCell id="CUxJD5j-P1nPdLDIXRBb-21" value="Akses Aplikasi KendaraanBekas" style="rounded=1;whiteSpace=wrap;html=1;arcSize=40;fontColor=#000000;fillColor=#ffffc0;strokeColor=#ff0000;" vertex="1" parent="CUxJD5j-P1nPdLDIXRBb-2">
          <mxGeometry x="65" y="110" width="120" height="40" as="geometry" />
        </mxCell>
        <mxCell id="CUxJD5j-P1nPdLDIXRBb-25" value="Klik Produk yang Diinginkan" style="rounded=1;whiteSpace=wrap;html=1;arcSize=40;fontColor=#000000;fillColor=#ffffc0;strokeColor=#ff0000;" vertex="1" parent="CUxJD5j-P1nPdLDIXRBb-2">
          <mxGeometry x="65" y="180" width="120" height="40" as="geometry" />
        </mxCell>
        <mxCell id="CUxJD5j-P1nPdLDIXRBb-29" value="Pengajuan" style="rhombus;whiteSpace=wrap;html=1;fillColor=#ffffc0;strokeColor=#ff0000;" vertex="1" parent="CUxJD5j-P1nPdLDIXRBb-2">
          <mxGeometry x="85" y="300" width="80" height="40" as="geometry" />
        </mxCell>
        <mxCell id="CUxJD5j-P1nPdLDIXRBb-30" value="no" style="edgeStyle=orthogonalEdgeStyle;html=1;align=left;verticalAlign=bottom;endArrow=open;endSize=8;strokeColor=#ff0000;rounded=0;entryX=0.5;entryY=0;entryDx=0;entryDy=0;" edge="1" source="CUxJD5j-P1nPdLDIXRBb-29" parent="CUxJD5j-P1nPdLDIXRBb-2" target="CUxJD5j-P1nPdLDIXRBb-45">
          <mxGeometry x="-1" relative="1" as="geometry">
            <mxPoint x="215" y="400" as="targetPoint" />
          </mxGeometry>
        </mxCell>
        <mxCell id="CUxJD5j-P1nPdLDIXRBb-31" value="yes" style="edgeStyle=orthogonalEdgeStyle;html=1;align=left;verticalAlign=top;endArrow=open;endSize=8;strokeColor=#ff0000;rounded=0;" edge="1" source="CUxJD5j-P1nPdLDIXRBb-29" parent="CUxJD5j-P1nPdLDIXRBb-2">
          <mxGeometry x="-0.8175" y="10" relative="1" as="geometry">
            <mxPoint x="60" y="460" as="targetPoint" />
            <Array as="points">
              <mxPoint x="60" y="320" />
              <mxPoint x="60" y="460" />
            </Array>
            <mxPoint as="offset" />
          </mxGeometry>
        </mxCell>
        <mxCell id="CUxJD5j-P1nPdLDIXRBb-32" value="Klik Pengajuan" style="rounded=1;whiteSpace=wrap;html=1;arcSize=40;fontColor=#000000;fillColor=#ffffc0;strokeColor=#ff0000;" vertex="1" parent="CUxJD5j-P1nPdLDIXRBb-2">
          <mxGeometry x="10" y="460" width="120" height="40" as="geometry" />
        </mxCell>
        <mxCell id="CUxJD5j-P1nPdLDIXRBb-36" value="Mengisi Tenor" style="rounded=1;whiteSpace=wrap;html=1;arcSize=40;fontColor=#000000;fillColor=#ffffc0;strokeColor=#ff0000;" vertex="1" parent="CUxJD5j-P1nPdLDIXRBb-2">
          <mxGeometry x="65" y="550" width="120" height="40" as="geometry" />
        </mxCell>
        <mxCell id="CUxJD5j-P1nPdLDIXRBb-37" value="" style="edgeStyle=orthogonalEdgeStyle;html=1;verticalAlign=bottom;endArrow=open;endSize=8;strokeColor=#ff0000;rounded=0;entryX=0.5;entryY=0;entryDx=0;entryDy=0;" edge="1" source="CUxJD5j-P1nPdLDIXRBb-36" parent="CUxJD5j-P1nPdLDIXRBb-2" target="CUxJD5j-P1nPdLDIXRBb-38">
          <mxGeometry relative="1" as="geometry">
            <mxPoint x="140" y="700" as="targetPoint" />
          </mxGeometry>
        </mxCell>
        <mxCell id="CUxJD5j-P1nPdLDIXRBb-38" value="Klik Simulasi Kredit" style="rounded=1;whiteSpace=wrap;html=1;arcSize=40;fontColor=#000000;fillColor=#ffffc0;strokeColor=#ff0000;" vertex="1" parent="CUxJD5j-P1nPdLDIXRBb-2">
          <mxGeometry x="65" y="620" width="120" height="40" as="geometry" />
        </mxCell>
        <mxCell id="CUxJD5j-P1nPdLDIXRBb-45" value="" style="ellipse;html=1;shape=endState;fillColor=#000000;strokeColor=#ff0000;" vertex="1" parent="CUxJD5j-P1nPdLDIXRBb-2">
          <mxGeometry x="200" y="420" width="30" height="30" as="geometry" />
        </mxCell>
        <mxCell id="CUxJD5j-P1nPdLDIXRBb-11" value="System" style="swimlane;html=1;startSize=20;" vertex="1" parent="CUxJD5j-P1nPdLDIXRBb-1">
          <mxGeometry x="250" y="20" width="260" height="940" as="geometry" />
        </mxCell>
        <mxCell id="CUxJD5j-P1nPdLDIXRBb-23" value="Tampil Halaman Utama" style="rounded=1;whiteSpace=wrap;html=1;arcSize=40;fontColor=#000000;fillColor=#ffffc0;strokeColor=#ff0000;" vertex="1" parent="CUxJD5j-P1nPdLDIXRBb-11">
          <mxGeometry x="75" y="110" width="120" height="40" as="geometry" />
        </mxCell>
        <mxCell id="CUxJD5j-P1nPdLDIXRBb-27" value="Tampil Halaman Detail Produk" style="rounded=1;whiteSpace=wrap;html=1;arcSize=40;fontColor=#000000;fillColor=#ffffc0;strokeColor=#ff0000;" vertex="1" parent="CUxJD5j-P1nPdLDIXRBb-11">
          <mxGeometry x="75" y="230" width="120" height="40" as="geometry" />
        </mxCell>
        <mxCell id="CUxJD5j-P1nPdLDIXRBb-34" value="Tampil SlideUp Panel Pengajuan" style="rounded=1;whiteSpace=wrap;html=1;arcSize=40;fontColor=#000000;fillColor=#ffffc0;strokeColor=#ff0000;" vertex="1" parent="CUxJD5j-P1nPdLDIXRBb-11">
          <mxGeometry x="80" y="460" width="120" height="40" as="geometry" />
        </mxCell>
        <mxCell id="CUxJD5j-P1nPdLDIXRBb-40" value="Melakukan &amp;nbsp;Perhitungan Kredit" style="rounded=1;whiteSpace=wrap;html=1;arcSize=40;fontColor=#000000;fillColor=#ffffc0;strokeColor=#ff0000;" vertex="1" parent="CUxJD5j-P1nPdLDIXRBb-11">
          <mxGeometry x="80" y="620" width="120" height="40" as="geometry" />
        </mxCell>
        <mxCell id="CUxJD5j-P1nPdLDIXRBb-41" value="" style="edgeStyle=orthogonalEdgeStyle;html=1;verticalAlign=bottom;endArrow=open;endSize=8;strokeColor=#ff0000;rounded=0;entryX=0.5;entryY=0;entryDx=0;entryDy=0;" edge="1" source="CUxJD5j-P1nPdLDIXRBb-40" parent="CUxJD5j-P1nPdLDIXRBb-11" target="CUxJD5j-P1nPdLDIXRBb-42">
          <mxGeometry relative="1" as="geometry">
            <mxPoint x="130" y="820" as="targetPoint" />
          </mxGeometry>
        </mxCell>
        <mxCell id="CUxJD5j-P1nPdLDIXRBb-42" value="Tampilkan Hasil Simulasi Kredit" style="rounded=1;whiteSpace=wrap;html=1;arcSize=40;fontColor=#000000;fillColor=#ffffc0;strokeColor=#ff0000;" vertex="1" parent="CUxJD5j-P1nPdLDIXRBb-11">
          <mxGeometry x="80" y="700" width="120" height="40" as="geometry" />
        </mxCell>
        <mxCell id="CUxJD5j-P1nPdLDIXRBb-43" value="" style="edgeStyle=orthogonalEdgeStyle;html=1;verticalAlign=bottom;endArrow=open;endSize=8;strokeColor=#ff0000;rounded=0;entryX=0.5;entryY=0;entryDx=0;entryDy=0;" edge="1" source="CUxJD5j-P1nPdLDIXRBb-42" parent="CUxJD5j-P1nPdLDIXRBb-11" target="CUxJD5j-P1nPdLDIXRBb-46">
          <mxGeometry relative="1" as="geometry">
            <mxPoint x="140" y="830" as="targetPoint" />
          </mxGeometry>
        </mxCell>
        <mxCell id="CUxJD5j-P1nPdLDIXRBb-46" value="" style="ellipse;html=1;shape=endState;fillColor=#000000;strokeColor=#ff0000;" vertex="1" parent="CUxJD5j-P1nPdLDIXRBb-11">
          <mxGeometry x="125" y="840" width="30" height="30" as="geometry" />
        </mxCell>
        <mxCell id="CUxJD5j-P1nPdLDIXRBb-22" value="" style="edgeStyle=orthogonalEdgeStyle;html=1;verticalAlign=bottom;endArrow=open;endSize=8;strokeColor=#ff0000;rounded=0;entryX=0;entryY=0.5;entryDx=0;entryDy=0;" edge="1" source="CUxJD5j-P1nPdLDIXRBb-21" parent="CUxJD5j-P1nPdLDIXRBb-1" target="CUxJD5j-P1nPdLDIXRBb-23">
          <mxGeometry relative="1" as="geometry">
            <mxPoint x="125" y="270" as="targetPoint" />
          </mxGeometry>
        </mxCell>
        <mxCell id="CUxJD5j-P1nPdLDIXRBb-24" value="" style="edgeStyle=orthogonalEdgeStyle;html=1;verticalAlign=bottom;endArrow=open;endSize=8;strokeColor=#ff0000;rounded=0;entryX=1;entryY=0.5;entryDx=0;entryDy=0;" edge="1" source="CUxJD5j-P1nPdLDIXRBb-23" parent="CUxJD5j-P1nPdLDIXRBb-1" target="CUxJD5j-P1nPdLDIXRBb-25">
          <mxGeometry relative="1" as="geometry">
            <mxPoint x="385" y="270" as="targetPoint" />
            <Array as="points">
              <mxPoint x="385" y="220" />
            </Array>
          </mxGeometry>
        </mxCell>
        <mxCell id="CUxJD5j-P1nPdLDIXRBb-26" value="" style="edgeStyle=orthogonalEdgeStyle;html=1;verticalAlign=bottom;endArrow=open;endSize=8;strokeColor=#ff0000;rounded=0;entryX=0;entryY=0.5;entryDx=0;entryDy=0;" edge="1" source="CUxJD5j-P1nPdLDIXRBb-25" parent="CUxJD5j-P1nPdLDIXRBb-1" target="CUxJD5j-P1nPdLDIXRBb-27">
          <mxGeometry relative="1" as="geometry">
            <mxPoint x="125" y="390" as="targetPoint" />
            <Array as="points">
              <mxPoint x="125" y="270" />
            </Array>
          </mxGeometry>
        </mxCell>
        <mxCell id="CUxJD5j-P1nPdLDIXRBb-28" value="" style="edgeStyle=orthogonalEdgeStyle;html=1;verticalAlign=bottom;endArrow=open;endSize=8;strokeColor=#ff0000;rounded=0;entryX=0.5;entryY=0;entryDx=0;entryDy=0;" edge="1" source="CUxJD5j-P1nPdLDIXRBb-27" parent="CUxJD5j-P1nPdLDIXRBb-1" target="CUxJD5j-P1nPdLDIXRBb-29">
          <mxGeometry relative="1" as="geometry">
            <mxPoint x="385" y="390" as="targetPoint" />
            <Array as="points">
              <mxPoint x="385" y="300" />
              <mxPoint x="125" y="300" />
            </Array>
          </mxGeometry>
        </mxCell>
        <mxCell id="CUxJD5j-P1nPdLDIXRBb-33" value="" style="edgeStyle=orthogonalEdgeStyle;html=1;verticalAlign=bottom;endArrow=open;endSize=8;strokeColor=#ff0000;rounded=0;entryX=0;entryY=0.5;entryDx=0;entryDy=0;" edge="1" source="CUxJD5j-P1nPdLDIXRBb-32" parent="CUxJD5j-P1nPdLDIXRBb-1" target="CUxJD5j-P1nPdLDIXRBb-34">
          <mxGeometry relative="1" as="geometry">
            <mxPoint x="130" y="620" as="targetPoint" />
          </mxGeometry>
        </mxCell>
        <mxCell id="CUxJD5j-P1nPdLDIXRBb-35" value="" style="edgeStyle=orthogonalEdgeStyle;html=1;verticalAlign=bottom;endArrow=open;endSize=8;strokeColor=#ff0000;rounded=0;" edge="1" source="CUxJD5j-P1nPdLDIXRBb-34" parent="CUxJD5j-P1nPdLDIXRBb-1" target="CUxJD5j-P1nPdLDIXRBb-36">
          <mxGeometry relative="1" as="geometry">
            <mxPoint x="390" y="620" as="targetPoint" />
            <Array as="points">
              <mxPoint x="390" y="550" />
              <mxPoint x="125" y="550" />
            </Array>
          </mxGeometry>
        </mxCell>
        <mxCell id="CUxJD5j-P1nPdLDIXRBb-39" value="" style="edgeStyle=orthogonalEdgeStyle;html=1;verticalAlign=bottom;endArrow=open;endSize=8;strokeColor=#ff0000;rounded=0;" edge="1" source="CUxJD5j-P1nPdLDIXRBb-38" parent="CUxJD5j-P1nPdLDIXRBb-1" target="CUxJD5j-P1nPdLDIXRBb-40">
          <mxGeometry relative="1" as="geometry">
            <mxPoint x="130" y="830" as="targetPoint" />
          </mxGeometry>
        </mxCell>
        <mxCell id="CUxJD5j-P1nPdLDIXRBb-65" value="KendaraanBekas" style="swimlane;html=1;childLayout=stackLayout;startSize=20;rounded=0;shadow=0;comic=0;labelBackgroundColor=none;strokeWidth=1;fontFamily=Verdana;fontSize=12;align=center;" vertex="1" parent="1">
          <mxGeometry x="570" y="740" width="510" height="960" as="geometry" />
        </mxCell>
        <mxCell id="CUxJD5j-P1nPdLDIXRBb-66" value="User" style="swimlane;html=1;startSize=20;" vertex="1" parent="CUxJD5j-P1nPdLDIXRBb-65">
          <mxGeometry y="20" width="250" height="940" as="geometry" />
        </mxCell>
        <mxCell id="CUxJD5j-P1nPdLDIXRBb-67" value="Simulasi Kredit" style="text;html=1;strokeColor=none;fillColor=none;align=center;verticalAlign=middle;whiteSpace=wrap;rounded=0;" vertex="1" parent="CUxJD5j-P1nPdLDIXRBb-66">
          <mxGeometry y="910" width="60" height="30" as="geometry" />
        </mxCell>
        <mxCell id="CUxJD5j-P1nPdLDIXRBb-68" value="" style="ellipse;html=1;shape=startState;fillColor=#000000;strokeColor=#ff0000;" vertex="1" parent="CUxJD5j-P1nPdLDIXRBb-66">
          <mxGeometry x="110" y="40" width="30" height="30" as="geometry" />
        </mxCell>
        <mxCell id="CUxJD5j-P1nPdLDIXRBb-69" value="" style="edgeStyle=orthogonalEdgeStyle;html=1;verticalAlign=bottom;endArrow=open;endSize=8;strokeColor=#ff0000;rounded=0;entryX=0.5;entryY=0;entryDx=0;entryDy=0;" edge="1" parent="CUxJD5j-P1nPdLDIXRBb-66" source="CUxJD5j-P1nPdLDIXRBb-68" target="CUxJD5j-P1nPdLDIXRBb-70">
          <mxGeometry relative="1" as="geometry">
            <mxPoint x="125" y="130" as="targetPoint" />
          </mxGeometry>
        </mxCell>
        <mxCell id="CUxJD5j-P1nPdLDIXRBb-70" value="Akses Aplikasi KendaraanBekas" style="rounded=1;whiteSpace=wrap;html=1;arcSize=40;fontColor=#000000;fillColor=#ffffc0;strokeColor=#ff0000;" vertex="1" parent="CUxJD5j-P1nPdLDIXRBb-66">
          <mxGeometry x="65" y="110" width="120" height="40" as="geometry" />
        </mxCell>
        <mxCell id="CUxJD5j-P1nPdLDIXRBb-71" value="Klik Produk yang Diinginkan" style="rounded=1;whiteSpace=wrap;html=1;arcSize=40;fontColor=#000000;fillColor=#ffffc0;strokeColor=#ff0000;" vertex="1" parent="CUxJD5j-P1nPdLDIXRBb-66">
          <mxGeometry x="65" y="180" width="120" height="40" as="geometry" />
        </mxCell>
        <mxCell id="CUxJD5j-P1nPdLDIXRBb-72" value="Penawaran" style="rhombus;whiteSpace=wrap;html=1;fillColor=#ffffc0;strokeColor=#ff0000;" vertex="1" parent="CUxJD5j-P1nPdLDIXRBb-66">
          <mxGeometry x="85" y="300" width="80" height="40" as="geometry" />
        </mxCell>
        <mxCell id="CUxJD5j-P1nPdLDIXRBb-73" value="no" style="edgeStyle=orthogonalEdgeStyle;html=1;align=left;verticalAlign=bottom;endArrow=open;endSize=8;strokeColor=#ff0000;rounded=0;entryX=0.5;entryY=0;entryDx=0;entryDy=0;" edge="1" parent="CUxJD5j-P1nPdLDIXRBb-66" source="CUxJD5j-P1nPdLDIXRBb-72" target="CUxJD5j-P1nPdLDIXRBb-79">
          <mxGeometry x="-1" relative="1" as="geometry">
            <mxPoint x="215" y="400" as="targetPoint" />
          </mxGeometry>
        </mxCell>
        <mxCell id="CUxJD5j-P1nPdLDIXRBb-74" value="yes" style="edgeStyle=orthogonalEdgeStyle;html=1;align=left;verticalAlign=top;endArrow=open;endSize=8;strokeColor=#ff0000;rounded=0;" edge="1" parent="CUxJD5j-P1nPdLDIXRBb-66" source="CUxJD5j-P1nPdLDIXRBb-72">
          <mxGeometry x="-0.8175" y="10" relative="1" as="geometry">
            <mxPoint x="60" y="460" as="targetPoint" />
            <Array as="points">
              <mxPoint x="60" y="320" />
              <mxPoint x="60" y="460" />
            </Array>
            <mxPoint as="offset" />
          </mxGeometry>
        </mxCell>
        <mxCell id="CUxJD5j-P1nPdLDIXRBb-75" value="Klik Penawaran" style="rounded=1;whiteSpace=wrap;html=1;arcSize=40;fontColor=#000000;fillColor=#ffffc0;strokeColor=#ff0000;" vertex="1" parent="CUxJD5j-P1nPdLDIXRBb-66">
          <mxGeometry x="10" y="460" width="120" height="40" as="geometry" />
        </mxCell>
        <mxCell id="CUxJD5j-P1nPdLDIXRBb-76" value="&lt;i&gt;Input &lt;/i&gt;harga tawar" style="rounded=1;whiteSpace=wrap;html=1;arcSize=40;fontColor=#000000;fillColor=#ffffc0;strokeColor=#ff0000;" vertex="1" parent="CUxJD5j-P1nPdLDIXRBb-66">
          <mxGeometry x="65" y="550" width="120" height="40" as="geometry" />
        </mxCell>
        <mxCell id="CUxJD5j-P1nPdLDIXRBb-77" value="" style="edgeStyle=orthogonalEdgeStyle;html=1;verticalAlign=bottom;endArrow=open;endSize=8;strokeColor=#ff0000;rounded=0;entryX=0.5;entryY=0;entryDx=0;entryDy=0;" edge="1" parent="CUxJD5j-P1nPdLDIXRBb-66" source="CUxJD5j-P1nPdLDIXRBb-76" target="CUxJD5j-P1nPdLDIXRBb-78">
          <mxGeometry relative="1" as="geometry">
            <mxPoint x="140" y="700" as="targetPoint" />
          </mxGeometry>
        </mxCell>
        <mxCell id="CUxJD5j-P1nPdLDIXRBb-78" value="Klik Tawar Harga" style="rounded=1;whiteSpace=wrap;html=1;arcSize=40;fontColor=#000000;fillColor=#ffffc0;strokeColor=#ff0000;" vertex="1" parent="CUxJD5j-P1nPdLDIXRBb-66">
          <mxGeometry x="65" y="620" width="120" height="40" as="geometry" />
        </mxCell>
        <mxCell id="CUxJD5j-P1nPdLDIXRBb-79" value="" style="ellipse;html=1;shape=endState;fillColor=#000000;strokeColor=#ff0000;" vertex="1" parent="CUxJD5j-P1nPdLDIXRBb-66">
          <mxGeometry x="200" y="420" width="30" height="30" as="geometry" />
        </mxCell>
        <mxCell id="CUxJD5j-P1nPdLDIXRBb-89" value="" style="edgeStyle=orthogonalEdgeStyle;html=1;verticalAlign=bottom;endArrow=open;endSize=8;strokeColor=#ff0000;rounded=0;entryX=0;entryY=0.5;entryDx=0;entryDy=0;" edge="1" parent="CUxJD5j-P1nPdLDIXRBb-65" source="CUxJD5j-P1nPdLDIXRBb-70" target="CUxJD5j-P1nPdLDIXRBb-81">
          <mxGeometry relative="1" as="geometry">
            <mxPoint x="125" y="270" as="targetPoint" />
          </mxGeometry>
        </mxCell>
        <mxCell id="CUxJD5j-P1nPdLDIXRBb-90" value="" style="edgeStyle=orthogonalEdgeStyle;html=1;verticalAlign=bottom;endArrow=open;endSize=8;strokeColor=#ff0000;rounded=0;entryX=1;entryY=0.5;entryDx=0;entryDy=0;" edge="1" parent="CUxJD5j-P1nPdLDIXRBb-65" source="CUxJD5j-P1nPdLDIXRBb-81" target="CUxJD5j-P1nPdLDIXRBb-71">
          <mxGeometry relative="1" as="geometry">
            <mxPoint x="385" y="270" as="targetPoint" />
            <Array as="points">
              <mxPoint x="385" y="220" />
            </Array>
          </mxGeometry>
        </mxCell>
        <mxCell id="CUxJD5j-P1nPdLDIXRBb-91" value="" style="edgeStyle=orthogonalEdgeStyle;html=1;verticalAlign=bottom;endArrow=open;endSize=8;strokeColor=#ff0000;rounded=0;entryX=0;entryY=0.5;entryDx=0;entryDy=0;" edge="1" parent="CUxJD5j-P1nPdLDIXRBb-65" source="CUxJD5j-P1nPdLDIXRBb-71" target="CUxJD5j-P1nPdLDIXRBb-82">
          <mxGeometry relative="1" as="geometry">
            <mxPoint x="125" y="390" as="targetPoint" />
            <Array as="points">
              <mxPoint x="125" y="270" />
            </Array>
          </mxGeometry>
        </mxCell>
        <mxCell id="CUxJD5j-P1nPdLDIXRBb-92" value="" style="edgeStyle=orthogonalEdgeStyle;html=1;verticalAlign=bottom;endArrow=open;endSize=8;strokeColor=#ff0000;rounded=0;entryX=0.5;entryY=0;entryDx=0;entryDy=0;" edge="1" parent="CUxJD5j-P1nPdLDIXRBb-65" source="CUxJD5j-P1nPdLDIXRBb-82" target="CUxJD5j-P1nPdLDIXRBb-72">
          <mxGeometry relative="1" as="geometry">
            <mxPoint x="385" y="390" as="targetPoint" />
            <Array as="points">
              <mxPoint x="385" y="300" />
              <mxPoint x="125" y="300" />
            </Array>
          </mxGeometry>
        </mxCell>
        <mxCell id="CUxJD5j-P1nPdLDIXRBb-93" value="" style="edgeStyle=orthogonalEdgeStyle;html=1;verticalAlign=bottom;endArrow=open;endSize=8;strokeColor=#ff0000;rounded=0;entryX=0;entryY=0.5;entryDx=0;entryDy=0;" edge="1" parent="CUxJD5j-P1nPdLDIXRBb-65" source="CUxJD5j-P1nPdLDIXRBb-75" target="CUxJD5j-P1nPdLDIXRBb-83">
          <mxGeometry relative="1" as="geometry">
            <mxPoint x="130" y="620" as="targetPoint" />
          </mxGeometry>
        </mxCell>
        <mxCell id="CUxJD5j-P1nPdLDIXRBb-94" value="" style="edgeStyle=orthogonalEdgeStyle;html=1;verticalAlign=bottom;endArrow=open;endSize=8;strokeColor=#ff0000;rounded=0;" edge="1" parent="CUxJD5j-P1nPdLDIXRBb-65" source="CUxJD5j-P1nPdLDIXRBb-83" target="CUxJD5j-P1nPdLDIXRBb-76">
          <mxGeometry relative="1" as="geometry">
            <mxPoint x="390" y="620" as="targetPoint" />
            <Array as="points">
              <mxPoint x="390" y="550" />
              <mxPoint x="125" y="550" />
            </Array>
          </mxGeometry>
        </mxCell>
        <mxCell id="CUxJD5j-P1nPdLDIXRBb-95" value="" style="edgeStyle=orthogonalEdgeStyle;html=1;verticalAlign=bottom;endArrow=open;endSize=8;strokeColor=#ff0000;rounded=0;entryX=0;entryY=0.5;entryDx=0;entryDy=0;" edge="1" parent="CUxJD5j-P1nPdLDIXRBb-65" source="CUxJD5j-P1nPdLDIXRBb-78" target="CUxJD5j-P1nPdLDIXRBb-96">
          <mxGeometry relative="1" as="geometry">
            <mxPoint x="330" y="660" as="targetPoint" />
          </mxGeometry>
        </mxCell>
        <mxCell id="CUxJD5j-P1nPdLDIXRBb-80" value="System" style="swimlane;html=1;startSize=20;" vertex="1" parent="CUxJD5j-P1nPdLDIXRBb-65">
          <mxGeometry x="250" y="20" width="260" height="940" as="geometry" />
        </mxCell>
        <mxCell id="CUxJD5j-P1nPdLDIXRBb-81" value="Tampil Halaman Utama" style="rounded=1;whiteSpace=wrap;html=1;arcSize=40;fontColor=#000000;fillColor=#ffffc0;strokeColor=#ff0000;" vertex="1" parent="CUxJD5j-P1nPdLDIXRBb-80">
          <mxGeometry x="75" y="110" width="120" height="40" as="geometry" />
        </mxCell>
        <mxCell id="CUxJD5j-P1nPdLDIXRBb-82" value="Tampil Halaman Detail Produk" style="rounded=1;whiteSpace=wrap;html=1;arcSize=40;fontColor=#000000;fillColor=#ffffc0;strokeColor=#ff0000;" vertex="1" parent="CUxJD5j-P1nPdLDIXRBb-80">
          <mxGeometry x="75" y="230" width="120" height="40" as="geometry" />
        </mxCell>
        <mxCell id="CUxJD5j-P1nPdLDIXRBb-83" value="Tampil SlideUp Panel Penawaran" style="rounded=1;whiteSpace=wrap;html=1;arcSize=40;fontColor=#000000;fillColor=#ffffc0;strokeColor=#ff0000;" vertex="1" parent="CUxJD5j-P1nPdLDIXRBb-80">
          <mxGeometry x="80" y="460" width="120" height="40" as="geometry" />
        </mxCell>
        <mxCell id="CUxJD5j-P1nPdLDIXRBb-88" value="" style="ellipse;html=1;shape=endState;fillColor=#000000;strokeColor=#ff0000;" vertex="1" parent="CUxJD5j-P1nPdLDIXRBb-80">
          <mxGeometry x="185" y="780" width="30" height="30" as="geometry" />
        </mxCell>
        <mxCell id="CUxJD5j-P1nPdLDIXRBb-96" value="Cek Penawaran Sudah ada&amp;nbsp;" style="rhombus;whiteSpace=wrap;html=1;fillColor=#ffffc0;strokeColor=#ff0000;" vertex="1" parent="CUxJD5j-P1nPdLDIXRBb-80">
          <mxGeometry x="60" y="600" width="115" height="80" as="geometry" />
        </mxCell>
        <mxCell id="CUxJD5j-P1nPdLDIXRBb-97" value="no" style="edgeStyle=orthogonalEdgeStyle;html=1;align=left;verticalAlign=bottom;endArrow=open;endSize=8;strokeColor=#ff0000;rounded=0;entryX=0.5;entryY=0;entryDx=0;entryDy=0;" edge="1" source="CUxJD5j-P1nPdLDIXRBb-96" parent="CUxJD5j-P1nPdLDIXRBb-80" target="CUxJD5j-P1nPdLDIXRBb-99">
          <mxGeometry x="-0.1887" relative="1" as="geometry">
            <mxPoint x="255" y="600" as="targetPoint" />
            <mxPoint as="offset" />
          </mxGeometry>
        </mxCell>
        <mxCell id="CUxJD5j-P1nPdLDIXRBb-98" value="yes" style="edgeStyle=orthogonalEdgeStyle;html=1;align=left;verticalAlign=top;endArrow=open;endSize=8;strokeColor=#ff0000;rounded=0;" edge="1" source="CUxJD5j-P1nPdLDIXRBb-96" parent="CUxJD5j-P1nPdLDIXRBb-80" target="CUxJD5j-P1nPdLDIXRBb-101">
          <mxGeometry x="-1" relative="1" as="geometry">
            <mxPoint x="115" y="710" as="targetPoint" />
            <Array as="points">
              <mxPoint x="200" y="640" />
            </Array>
          </mxGeometry>
        </mxCell>
        <mxCell id="CUxJD5j-P1nPdLDIXRBb-99" value="Penawaran Harga Tercatat" style="rounded=1;whiteSpace=wrap;html=1;arcSize=40;fontColor=#000000;fillColor=#ffffc0;strokeColor=#ff0000;" vertex="1" parent="CUxJD5j-P1nPdLDIXRBb-80">
          <mxGeometry x="5" y="720" width="120" height="40" as="geometry" />
        </mxCell>
        <mxCell id="CUxJD5j-P1nPdLDIXRBb-100" value="" style="edgeStyle=orthogonalEdgeStyle;html=1;verticalAlign=bottom;endArrow=open;endSize=8;strokeColor=#ff0000;rounded=0;" edge="1" source="CUxJD5j-P1nPdLDIXRBb-99" parent="CUxJD5j-P1nPdLDIXRBb-80" target="CUxJD5j-P1nPdLDIXRBb-103">
          <mxGeometry relative="1" as="geometry">
            <mxPoint x="80" y="830" as="targetPoint" />
          </mxGeometry>
        </mxCell>
        <mxCell id="CUxJD5j-P1nPdLDIXRBb-101" value="Tampilkan Error Message" style="rounded=1;whiteSpace=wrap;html=1;arcSize=40;fontColor=#000000;fillColor=#ffffc0;strokeColor=#ff0000;" vertex="1" parent="CUxJD5j-P1nPdLDIXRBb-80">
          <mxGeometry x="130" y="720" width="120" height="40" as="geometry" />
        </mxCell>
        <mxCell id="CUxJD5j-P1nPdLDIXRBb-102" value="" style="edgeStyle=orthogonalEdgeStyle;html=1;verticalAlign=bottom;endArrow=open;endSize=8;strokeColor=#ff0000;rounded=0;entryX=0.5;entryY=0;entryDx=0;entryDy=0;" edge="1" source="CUxJD5j-P1nPdLDIXRBb-101" parent="CUxJD5j-P1nPdLDIXRBb-80" target="CUxJD5j-P1nPdLDIXRBb-88">
          <mxGeometry relative="1" as="geometry">
            <mxPoint x="200" y="820" as="targetPoint" />
          </mxGeometry>
        </mxCell>
        <mxCell id="CUxJD5j-P1nPdLDIXRBb-103" value="" style="ellipse;html=1;shape=endState;fillColor=#000000;strokeColor=#ff0000;" vertex="1" parent="CUxJD5j-P1nPdLDIXRBb-80">
          <mxGeometry x="50" y="780" width="30" height="30" as="geometry" />
        </mxCell>
      </root>
    </mxGraphModel>
  </diagram>
</mxfile>
